<?xml version="1.0" encoding="utf-8"?>
<!-- Generator: Adobe Illustrator 22.1.0, SVG Export Plug-In . SVG Version: 6.00 Build 0)  -->
<svg version="1.1" xmlns="http://www.w3.org/2000/svg" xmlns:xlink="http://www.w3.org/1999/xlink" x="0px" y="0px"
	 viewBox="0 0 2850 1800" enable-background="new 0 0 2850 1800" xml:space="preserve">
<g id="Layer_1_1_">
	<linearGradient id="SVGID_1_" gradientUnits="userSpaceOnUse" x1="1425" y1="14.8744" x2="1425" y2="1160.7583">
		<stop   class="background-1" offset="0" style="stop-color:#941B0A"/>
		<stop   class="background-2" offset="0.9962" style="stop-color:#FF670A"/>
	</linearGradient>
	<rect fill="url(#SVGID_1_)" width="2850" height="1800"/>
	<g>
		<g>
			
				<path fill="none" stroke="#FFFFFF" stroke-width="2.9602" stroke-linecap="round" stroke-linejoin="round" stroke-miterlimit="10" d="
				M2415.972,51.992c0-0.384,0-0.768,0-1.153"/>
			
				<path fill="none" stroke="#FFFFFF" stroke-width="2.9602" stroke-linecap="round" stroke-linejoin="round" stroke-miterlimit="10" d="
				M2445.563,117.691"/>
			
				<path fill="none" stroke="#FFFFFF" stroke-width="2.9602" stroke-linecap="round" stroke-linejoin="round" stroke-miterlimit="10" d="
				M2355.693,177.627c-0.365,0.384-0.731,0.768-1.096,1.153"/>
			
				<path fill="none" stroke="#FFFFFF" stroke-width="2.9602" stroke-linecap="round" stroke-linejoin="round" stroke-miterlimit="10" d="
				M2341.446,69.281"/>
			
				<path fill="none" stroke="#FFFFFF" stroke-width="2.9602" stroke-linecap="round" stroke-linejoin="round" stroke-miterlimit="10" d="
				M2262.535,26.634"/>
			
				<path fill="none" stroke="#FFFFFF" stroke-width="2.9602" stroke-linecap="round" stroke-linejoin="round" stroke-miterlimit="10" d="
				M2208.833,93.486c-0.365,0-0.731,0-1.096,0"/>
			
				<path fill="none" stroke="#FFFFFF" stroke-width="2.9602" stroke-linecap="round" stroke-linejoin="round" stroke-miterlimit="10" d="
				M2251.576,211.052c0-0.384,0-0.768,0-1.153"/>
			
				<path fill="none" stroke="#FFFFFF" stroke-width="2.9602" stroke-linecap="round" stroke-linejoin="round" stroke-miterlimit="10" d="
				M2327.391,333.265c-0.094,0.563,1.027,0.521,0.895-0.034"/>
			
				<path fill="none" stroke="#FFFFFF" stroke-width="2.9602" stroke-linecap="round" stroke-linejoin="round" stroke-miterlimit="10" d="
				M2181.433,294.04c0,0.384,0,0.769,0,1.153"/>
			
				<path fill="none" stroke="#FFFFFF" stroke-width="2.9602" stroke-linecap="round" stroke-linejoin="round" stroke-miterlimit="10" d="
				M2123.346,265.225"/>
			
				<path fill="none" stroke="#FFFFFF" stroke-width="2.9602" stroke-linecap="round" stroke-linejoin="round" stroke-miterlimit="10" d="
				M2149.65,408.149"/>
			
				<path fill="none" stroke="#FFFFFF" stroke-width="2.9602" stroke-linecap="round" stroke-linejoin="round" stroke-miterlimit="10" d="
				M2254.864,484.222c0.365-0.384,0.731-0.768,1.096-1.153"/>
			
				<path fill="none" stroke="#FFFFFF" stroke-width="2.9602" stroke-linecap="round" stroke-linejoin="round" stroke-miterlimit="10" d="
				M2571.601,318.245c0-0.384,0-0.768,0-1.153"/>
			
				<path fill="none" stroke="#FFFFFF" stroke-width="2.9602" stroke-linecap="round" stroke-linejoin="round" stroke-miterlimit="10" d="
				M2620.919,393.165"/>
			
				<path fill="none" stroke="#FFFFFF" stroke-width="2.9602" stroke-linecap="round" stroke-linejoin="round" stroke-miterlimit="10" d="
				M2775.452,345.908c0.365-0.384,0.731-0.768,1.096-1.153"/>
			
				<path fill="none" stroke="#FFFFFF" stroke-width="2.9602" stroke-linecap="round" stroke-linejoin="round" stroke-miterlimit="10" d="
				M2802.852,359.74"/>
			
				<path fill="none" stroke="#FFFFFF" stroke-width="2.9602" stroke-linecap="round" stroke-linejoin="round" stroke-miterlimit="10" d="
				M2715.173,253.699c0,0.384,0,0.768,0,1.153"/>
			
				<path fill="none" stroke="#FFFFFF" stroke-width="2.9602" stroke-linecap="round" stroke-linejoin="round" stroke-miterlimit="10" d="
				M2764.492,105.012c0-0.384,0-0.768,0-1.153"/>
			
				<path fill="none" stroke="#FFFFFF" stroke-width="2.9602" stroke-linecap="round" stroke-linejoin="round" stroke-miterlimit="10" d="
				M2796.276,71.586c0.365-0.768,0.731-1.537,1.096-2.305"/>
			
				<path fill="none" stroke="#FFFFFF" stroke-width="2.9602" stroke-linecap="round" stroke-linejoin="round" stroke-miterlimit="10" d="
				M2824.771,115.386c0-0.384,0-0.768,0-1.153"/>
			
				<path fill="none" stroke="#FFFFFF" stroke-width="2.9602" stroke-linecap="round" stroke-linejoin="round" stroke-miterlimit="10" d="
				M2668.046,93.486c-0.365,0-0.73,0-1.096,0"/>
			
				<path fill="none" stroke="#FFFFFF" stroke-width="2.9602" stroke-linecap="round" stroke-linejoin="round" stroke-miterlimit="10" d="
				M2654.895,42.771"/>
			
				<path fill="none" stroke="#FFFFFF" stroke-width="2.9602" stroke-linecap="round" stroke-linejoin="round" stroke-miterlimit="10" d="
				M2698.149,386.068c0-0.681,0-1.361,0-2.042"/>
			
				<path fill="none" stroke="#FFFFFF" stroke-width="2.9602" stroke-linecap="round" stroke-linejoin="round" stroke-miterlimit="10" d="
				M2820.47,678.066"/>
			
				<path fill="none" stroke="#FFFFFF" stroke-width="2.9602" stroke-linecap="round" stroke-linejoin="round" stroke-miterlimit="10" d="
				M2649.609,684.192"/>
			
				<path fill="none" stroke="#FFFFFF" stroke-width="2.9602" stroke-linecap="round" stroke-linejoin="round" stroke-miterlimit="10" d="
				M2624.369,582.095c0-0.681,0-1.361,0-2.042"/>
			
				<path fill="none" stroke="#FFFFFF" stroke-width="2.9602" stroke-linecap="round" stroke-linejoin="round" stroke-miterlimit="10" d="
				M2463.216,865.924"/>
			
				<path fill="none" stroke="#FFFFFF" stroke-width="2.9602" stroke-linecap="round" stroke-linejoin="round" stroke-miterlimit="10" d="
				M2558.354,941.476c-0.647,0-1.294,0-1.941,0"/>
			
				<path fill="none" stroke="#FFFFFF" stroke-width="2.9602" stroke-linecap="round" stroke-linejoin="round" stroke-miterlimit="10" d="
				M2399.143,994.567c0.647,0,1.294,0,1.942,0"/>
			
				<path fill="none" stroke="#FFFFFF" stroke-width="2.9602" stroke-linecap="round" stroke-linejoin="round" stroke-miterlimit="10" d="
				M2338.953,919.015c1.294,0,2.589,0,3.883,0"/>
			
				<path fill="none" stroke="#FFFFFF" stroke-width="2.9602" stroke-linecap="round" stroke-linejoin="round" stroke-miterlimit="10" d="
				M2717.565,919.015c0-0.681,0-1.361,0-2.042"/>
			
				<path fill="none" stroke="#FFFFFF" stroke-width="2.9602" stroke-linecap="round" stroke-linejoin="round" stroke-miterlimit="10" d="
				M2729.215,947.602c0,0.681,0,1.361,0,2.042"/>
			
				<path fill="none" stroke="#FFFFFF" stroke-width="2.9602" stroke-linecap="round" stroke-linejoin="round" stroke-miterlimit="10" d="
				M2806.879,933.308"/>
			
				<path fill="none" stroke="#FFFFFF" stroke-width="2.9602" stroke-linecap="round" stroke-linejoin="round" stroke-miterlimit="10" d="
				M2696.208,1159.964c-0.647-0.681-1.294-1.361-1.942-2.042"/>
			
				<path fill="none" stroke="#FFFFFF" stroke-width="2.9602" stroke-linecap="round" stroke-linejoin="round" stroke-miterlimit="10" d="
				M2711.741,1194.677"/>
			
				<path fill="none" stroke="#FFFFFF" stroke-width="2.9602" stroke-linecap="round" stroke-linejoin="round" stroke-miterlimit="10" d="
				M2558.354,1192.635"/>
			
				<path fill="none" stroke="#FFFFFF" stroke-width="2.9602" stroke-linecap="round" stroke-linejoin="round" stroke-miterlimit="10" d="
				M2797.171,1188.551c0,0.681,0,1.361,0,2.042"/>
			
				<path fill="none" stroke="#FFFFFF" stroke-width="2.9602" stroke-linecap="round" stroke-linejoin="round" stroke-miterlimit="10" d="
				M2208.865,1172.215"/>
			
				<path fill="none" stroke="#FFFFFF" stroke-width="2.9602" stroke-linecap="round" stroke-linejoin="round" stroke-miterlimit="10" d="
				M2104.019,1266.145"/>
			
				<path fill="none" stroke="#FFFFFF" stroke-width="2.9602" stroke-linecap="round" stroke-linejoin="round" stroke-miterlimit="10" d="
				M2076.836,1182.425"/>
			
				<path fill="none" stroke="#FFFFFF" stroke-width="2.9602" stroke-linecap="round" stroke-linejoin="round" stroke-miterlimit="10" d="
				M1993.348,951.686"/>
			
				<path fill="none" stroke="#FFFFFF" stroke-width="2.9602" stroke-linecap="round" stroke-linejoin="round" stroke-miterlimit="10" d="
				M1905.975,965.979"/>
			
				<path fill="none" stroke="#FFFFFF" stroke-width="2.9602" stroke-linecap="round" stroke-linejoin="round" stroke-miterlimit="10" d="
				M1843.844,927.183c-0.647,0-1.294,0-1.942,0"/>
			
				<path fill="none" stroke="#FFFFFF" stroke-width="2.9602" stroke-linecap="round" stroke-linejoin="round" stroke-miterlimit="10" d="
				M2043.829,594.346c0-0.681,0-1.361,0-2.042"/>
			
				<path fill="none" stroke="#FFFFFF" stroke-width="2.9602" stroke-linecap="round" stroke-linejoin="round" stroke-miterlimit="10" d="
				M2171.975,641.311c-0.647,0-1.294,0-1.942,0"/>
			
				<path fill="none" stroke="#FFFFFF" stroke-width="2.9602" stroke-linecap="round" stroke-linejoin="round" stroke-miterlimit="10" d="
				M1911.8,678.066"/>
			
				<path fill="none" stroke="#FFFFFF" stroke-width="2.9602" stroke-linecap="round" stroke-linejoin="round" stroke-miterlimit="10" d="
				M1921.508,138.994c-0.647,0.681-1.294,1.361-1.942,2.042"/>
			
				<path fill="none" stroke="#FFFFFF" stroke-width="2.9602" stroke-linecap="round" stroke-linejoin="round" stroke-miterlimit="10" d="
				M2061.304,4.225"/>
			
				<path fill="none" stroke="#FFFFFF" stroke-width="2.9602" stroke-linecap="round" stroke-linejoin="round" stroke-miterlimit="10" d="
				M1843.844,83.861c0-0.681,0-1.361,0-2.042"/>
			
				<path fill="none" stroke="#FFFFFF" stroke-width="2.9602" stroke-linecap="round" stroke-linejoin="round" stroke-miterlimit="10" d="
				M1775.888,316.642c-0.647,0-1.294,0-1.942,0"/>
			
				<path fill="none" stroke="#FFFFFF" stroke-width="2.9602" stroke-linecap="round" stroke-linejoin="round" stroke-miterlimit="10" d="
				M1731.231,420.781c0.647,0,1.294,0,1.942,0"/>
			
				<path fill="none" stroke="#FFFFFF" stroke-width="2.9602" stroke-linecap="round" stroke-linejoin="round" stroke-miterlimit="10" d="
				M1589.494,257.426"/>
			
				<path fill="none" stroke="#FFFFFF" stroke-width="2.9602" stroke-linecap="round" stroke-linejoin="round" stroke-miterlimit="10" d="
				M1453.582,339.104"/>
			
				<path fill="none" stroke="#FFFFFF" stroke-width="2.9602" stroke-linecap="round" stroke-linejoin="round" stroke-miterlimit="10" d="
				M1684.633,269.678"/>
			
				<path fill="none" stroke="#FFFFFF" stroke-width="2.9602" stroke-linecap="round" stroke-linejoin="round" stroke-miterlimit="10" d="
				M1484.647,181.874c1.942,0,3.883,0,5.825,0"/>
			
				<path fill="none" stroke="#FFFFFF" stroke-width="2.9602" stroke-linecap="round" stroke-linejoin="round" stroke-miterlimit="10" d="
				M1647.742,169.623c-0.647,0-1.294,0-1.942,0"/>
			
				<path fill="none" stroke="#FFFFFF" stroke-width="2.9602" stroke-linecap="round" stroke-linejoin="round" stroke-miterlimit="10" d="
				M1271.071,108.364"/>
			
				<path fill="none" stroke="#FFFFFF" stroke-width="2.9602" stroke-linecap="round" stroke-linejoin="round" stroke-miterlimit="10" d="
				M1175.933,110.406"/>
			
				<path fill="none" stroke="#FFFFFF" stroke-width="2.9602" stroke-linecap="round" stroke-linejoin="round" stroke-miterlimit="10" d="
				M1337.086,316.642"/>
			
				<path fill="none" stroke="#FFFFFF" stroke-width="2.9602" stroke-linecap="round" stroke-linejoin="round" stroke-miterlimit="10" d="
				M1179.816,310.517c0.647-0.681,1.294-1.361,1.942-2.042"/>
			
				<path fill="none" stroke="#FFFFFF" stroke-width="2.9602" stroke-linecap="round" stroke-linejoin="round" stroke-miterlimit="10" d="
				M1059.436,277.846"/>
			
				<path fill="none" stroke="#FFFFFF" stroke-width="2.9602" stroke-linecap="round" stroke-linejoin="round" stroke-miterlimit="10" d="
				M1067.203,179.832c0.647,0.681,1.294,1.361,1.942,2.042"/>
			
				<path fill="none" stroke="#FFFFFF" stroke-width="2.9602" stroke-linecap="round" stroke-linejoin="round" stroke-miterlimit="10" d="
				M975.947,326.852"/>
			
				<path fill="none" stroke="#FFFFFF" stroke-width="2.9602" stroke-linecap="round" stroke-linejoin="round" stroke-miterlimit="10" d="
				M1036.137,24.645"/>
			
				<path fill="none" stroke="#FFFFFF" stroke-width="2.9602" stroke-linecap="round" stroke-linejoin="round" stroke-miterlimit="10" d="
				M814.794,535.13c0-0.681,0-1.361,0-2.042"/>
			
				<path fill="none" stroke="#FFFFFF" stroke-width="2.9602" stroke-linecap="round" stroke-linejoin="round" stroke-miterlimit="10" d="
				M735.189,555.549c-0.647,0-1.294,0-1.942,0"/>
			
				<path fill="none" stroke="#FFFFFF" stroke-width="2.9602" stroke-linecap="round" stroke-linejoin="round" stroke-miterlimit="10" d="
				M845.86,633.143c0.647,0,1.294,0,1.942,0"/>
			
				<path fill="none" stroke="#FFFFFF" stroke-width="2.9602" stroke-linecap="round" stroke-linejoin="round" stroke-miterlimit="10" d="
				M754.605,716.863c0-0.681,0-1.361,0-2.042"/>
			
				<path fill="none" stroke="#FFFFFF" stroke-width="2.9602" stroke-linecap="round" stroke-linejoin="round" stroke-miterlimit="10" d="
				M838.094,1008.86C836.491,1008.86,836.491,1008.86,838.094,1008.86"/>
			
				<path fill="none" stroke="#FFFFFF" stroke-width="2.9602" stroke-linecap="round" stroke-linejoin="round" stroke-miterlimit="10" d="
				M911.875,976.189C910.272,976.189,910.272,976.189,911.875,976.189"/>
			
				<path fill="none" stroke="#FFFFFF" stroke-width="2.9602" stroke-linecap="round" stroke-linejoin="round" stroke-miterlimit="10" d="
				M995.363,845.505C995.363,843.819,995.363,843.819,995.363,845.505"/>
			
				<path fill="none" stroke="#FFFFFF" stroke-width="2.9602" stroke-linecap="round" stroke-linejoin="round" stroke-miterlimit="10" d="
				M1073.028,1192.635"/>
			
				<path fill="none" stroke="#FFFFFF" stroke-width="2.9602" stroke-linecap="round" stroke-linejoin="round" stroke-miterlimit="10" d="
				M836.152,1282.48c0.647,0,1.294,0,1.942,0"/>
			
				<path fill="none" stroke="#FFFFFF" stroke-width="2.9602" stroke-linecap="round" stroke-linejoin="round" stroke-miterlimit="10" d="
				M715.773,1059.909c0.647,0,1.294,0,1.942,0"/>
			
				<path fill="none" stroke="#FFFFFF" stroke-width="2.9602" stroke-linecap="round" stroke-linejoin="round" stroke-miterlimit="10" d="
				M616.751,1186.509"/>
			
				<path fill="none" stroke="#FFFFFF" stroke-width="2.9602" stroke-linecap="round" stroke-linejoin="round" stroke-miterlimit="10" d="
				M564.328,1166.09"/>
			
				<path fill="none" stroke="#FFFFFF" stroke-width="2.9602" stroke-linecap="round" stroke-linejoin="round" stroke-miterlimit="10" d="
				M527.437,1012.944c0-0.681,0-1.361,0-2.042"/>
			
				<path fill="none" stroke="#FFFFFF" stroke-width="2.9602" stroke-linecap="round" stroke-linejoin="round" stroke-miterlimit="10" d="
				M354.634,992.525"/>
			
				<path fill="none" stroke="#FFFFFF" stroke-width="2.9602" stroke-linecap="round" stroke-linejoin="round" stroke-miterlimit="10" d="
				M294.445,890.428"/>
			
				<path fill="none" stroke="#FFFFFF" stroke-width="2.9602" stroke-linecap="round" stroke-linejoin="round" stroke-miterlimit="10" d="
				M261.437,998.651"/>
			
				<path fill="none" stroke="#FFFFFF" stroke-width="2.9602" stroke-linecap="round" stroke-linejoin="round" stroke-miterlimit="10" d="
				M216.781,1190.593"/>
			
				<path fill="none" stroke="#FFFFFF" stroke-width="2.9602" stroke-linecap="round" stroke-linejoin="round" stroke-miterlimit="10" d="
				M158.533,1284.522c0.647,0,1.294,0,1.942,0"/>
			
				<path fill="none" stroke="#FFFFFF" stroke-width="2.9602" stroke-linecap="round" stroke-linejoin="round" stroke-miterlimit="10" d="
				M86.693,1131.377c0-0.681,0-1.361,0-2.042"/>
			
				<path fill="none" stroke="#FFFFFF" stroke-width="2.9602" stroke-linecap="round" stroke-linejoin="round" stroke-miterlimit="10" d="
				M18.737,1180.383c0,0.681,0,1.361,0,2.042"/>
			
				<path fill="none" stroke="#FFFFFF" stroke-width="2.9602" stroke-linecap="round" stroke-linejoin="round" stroke-miterlimit="10" d="
				M55.627,949.644"/>
			
				<path fill="none" stroke="#FFFFFF" stroke-width="2.9602" stroke-linecap="round" stroke-linejoin="round" stroke-miterlimit="10" d="
				M131.35,965.979c-0.647-0.681-1.294-1.361-1.942-2.042"/>
			
				<path fill="none" stroke="#FFFFFF" stroke-width="2.9602" stroke-linecap="round" stroke-linejoin="round" stroke-miterlimit="10" d="
				M86.693,867.966c-0.647,0-1.294,0-1.942,0"/>
			
				<path fill="none" stroke="#FFFFFF" stroke-width="2.9602" stroke-linecap="round" stroke-linejoin="round" stroke-miterlimit="10" d="
				M370.167,596.388c1.294,0,2.589,0,3.883,0"/>
			
				<path fill="none" stroke="#FFFFFF" stroke-width="2.9602" stroke-linecap="round" stroke-linejoin="round" stroke-miterlimit="10" d="
				M445.89,714.821"/>
			
				<path fill="none" stroke="#FFFFFF" stroke-width="2.9602" stroke-linecap="round" stroke-linejoin="round" stroke-miterlimit="10" d="
				M546.853,586.179c0.647-0.681,1.294-1.361,1.942-2.042"/>
			
				<path fill="none" stroke="#FFFFFF" stroke-width="2.9602" stroke-linecap="round" stroke-linejoin="round" stroke-miterlimit="10" d="
				M589.568,682.15c0.647,0.681,1.294,1.361,1.942,2.042"/>
			
				<path fill="none" stroke="#FFFFFF" stroke-width="2.9602" stroke-linecap="round" stroke-linejoin="round" stroke-miterlimit="10" d="
				M515.787,694.401"/>
			
				<path fill="none" stroke="#FFFFFF" stroke-width="2.9602" stroke-linecap="round" stroke-linejoin="round" stroke-miterlimit="10" d="
				M463.364,522.878"/>
			
				<path fill="none" stroke="#FFFFFF" stroke-width="2.9602" stroke-linecap="round" stroke-linejoin="round" stroke-miterlimit="10" d="
				M226.489,529.004c0.647,0,1.294,0,1.942,0"/>
			
				<path fill="none" stroke="#FFFFFF" stroke-width="2.9602" stroke-linecap="round" stroke-linejoin="round" stroke-miterlimit="10" d="
				M139.116,657.646"/>
			
				<path fill="none" stroke="#FFFFFF" stroke-width="2.9602" stroke-linecap="round" stroke-linejoin="round" stroke-miterlimit="10" d="
				M294.445,486.124c0.647,0,1.294,0,1.942,0"/>
			
				<path fill="none" stroke="#FFFFFF" stroke-width="2.9602" stroke-linecap="round" stroke-linejoin="round" stroke-miterlimit="10" d="
				M121.642,412.614c0.647,0,1.294,0,1.942,0"/>
			
				<path fill="none" stroke="#FFFFFF" stroke-width="2.9602" stroke-linecap="round" stroke-linejoin="round" stroke-miterlimit="10" d="
				M325.51,314.6"/>
			
				<path fill="none" stroke="#FFFFFF" stroke-width="2.9602" stroke-linecap="round" stroke-linejoin="round" stroke-miterlimit="10" d="
				M275.029,204.336"/>
			
				<path fill="none" stroke="#FFFFFF" stroke-width="2.9602" stroke-linecap="round" stroke-linejoin="round" stroke-miterlimit="10" d="
				M407.058,171.665"/>
			
				<path fill="none" stroke="#FFFFFF" stroke-width="2.9602" stroke-linecap="round" stroke-linejoin="round" stroke-miterlimit="10" d="
				M674.999,379.943C674.999,378.257,674.999,378.257,674.999,379.943"/>
			
				<path fill="none" stroke="#FFFFFF" stroke-width="2.9602" stroke-linecap="round" stroke-linejoin="round" stroke-miterlimit="10" d="
				M542.97,310.517"/>
			
				<path fill="none" stroke="#FFFFFF" stroke-width="2.9602" stroke-linecap="round" stroke-linejoin="round" stroke-miterlimit="10" d="
				M552.678,136.952c0.647,0,1.294,0,1.942,0"/>
			
				<path fill="none" stroke="#FFFFFF" stroke-width="2.9602" stroke-linecap="round" stroke-linejoin="round" stroke-miterlimit="10" d="
				M711.889,65.484c0,0.681,0,1.361,0,2.042"/>
			
				<path fill="none" stroke="#FFFFFF" stroke-width="2.9602" stroke-linecap="round" stroke-linejoin="round" stroke-miterlimit="10" d="
				M469.189,40.98c0.647,0.681,1.294,1.361,1.942,2.042"/>
			
				<path fill="none" stroke="#FFFFFF" stroke-width="2.9602" stroke-linecap="round" stroke-linejoin="round" stroke-miterlimit="10" d="
				M317.744,22.603c0-0.681,0-1.361,0-2.042"/>
			
				<path fill="none" stroke="#FFFFFF" stroke-width="2.9602" stroke-linecap="round" stroke-linejoin="round" stroke-miterlimit="10" d="
				M65.336,116.532c-0.647,0-1.294,0-1.942,0"/>
			
				<path fill="none" stroke="#FFFFFF" stroke-width="2.9602" stroke-linecap="round" stroke-linejoin="round" stroke-miterlimit="10" d="
				M36.211,245.174"/>
			
				<path fill="none" stroke="#FFFFFF" stroke-width="2.9602" stroke-linecap="round" stroke-linejoin="round" stroke-miterlimit="10" d="
				M131.35,18.519c0.647-0.681,1.294-1.361,1.942-2.042"/>
		</g>
		<g opacity="0.4">
			
				<path fill="none" stroke="#FFFFFF" stroke-width="2.7185" stroke-linecap="round" stroke-linejoin="round" stroke-miterlimit="10" d="
				M508.713,1188.389c0,0.353,0,0.706,0,1.058"/>
			
				<path fill="none" stroke="#FFFFFF" stroke-width="2.7185" stroke-linecap="round" stroke-linejoin="round" stroke-miterlimit="10" d="
				M481.538,1128.054"/>
			
				<path fill="none" stroke="#FFFFFF" stroke-width="2.7185" stroke-linecap="round" stroke-linejoin="round" stroke-miterlimit="10" d="
				M564.07,1073.012c0.335-0.353,0.671-0.706,1.006-1.059"/>
			
				<path fill="none" stroke="#FFFFFF" stroke-width="2.7185" stroke-linecap="round" stroke-linejoin="round" stroke-miterlimit="10" d="
				M577.154,1172.511"/>
			
				<path fill="none" stroke="#FFFFFF" stroke-width="2.7185" stroke-linecap="round" stroke-linejoin="round" stroke-miterlimit="10" d="
				M649.622,1211.676"/>
			
				<path fill="none" stroke="#FFFFFF" stroke-width="2.7185" stroke-linecap="round" stroke-linejoin="round" stroke-miterlimit="10" d="
				M698.94,1150.283c0.336,0,0.671,0,1.006,0"/>
			
				<path fill="none" stroke="#FFFFFF" stroke-width="2.7185" stroke-linecap="round" stroke-linejoin="round" stroke-miterlimit="10" d="
				M659.686,1042.315c0,0.353,0,0.706,0,1.058"/>
			
				<path fill="none" stroke="#FFFFFF" stroke-width="2.7185" stroke-linecap="round" stroke-linejoin="round" stroke-miterlimit="10" d="
				M590.061,930.081c0.087-0.517-0.943-0.478-0.822,0.031"/>
			
				<path fill="none" stroke="#FFFFFF" stroke-width="2.7185" stroke-linecap="round" stroke-linejoin="round" stroke-miterlimit="10" d="
				M724.102,966.103c0-0.353,0-0.706,0-1.059"/>
			
				<path fill="none" stroke="#FFFFFF" stroke-width="2.7185" stroke-linecap="round" stroke-linejoin="round" stroke-miterlimit="10" d="
				M777.446,992.565"/>
			
				<path fill="none" stroke="#FFFFFF" stroke-width="2.7185" stroke-linecap="round" stroke-linejoin="round" stroke-miterlimit="10" d="
				M753.29,861.311"/>
			
				<path fill="none" stroke="#FFFFFF" stroke-width="2.7185" stroke-linecap="round" stroke-linejoin="round" stroke-miterlimit="10" d="
				M656.667,791.45c-0.335,0.353-0.671,0.706-1.006,1.058"/>
			
				<path fill="none" stroke="#FFFFFF" stroke-width="2.7185" stroke-linecap="round" stroke-linejoin="round" stroke-miterlimit="10" d="
				M365.791,943.874c0,0.353,0,0.706,0,1.058"/>
			
				<path fill="none" stroke="#FFFFFF" stroke-width="2.7185" stroke-linecap="round" stroke-linejoin="round" stroke-miterlimit="10" d="
				M320.499,875.071"/>
			
				<path fill="none" stroke="#FFFFFF" stroke-width="2.7185" stroke-linecap="round" stroke-linejoin="round" stroke-miterlimit="10" d="
				M178.584,918.47c-0.335,0.353-0.671,0.706-1.006,1.058"/>
			
				<path fill="none" stroke="#FFFFFF" stroke-width="2.7185" stroke-linecap="round" stroke-linejoin="round" stroke-miterlimit="10" d="
				M153.421,905.768"/>
			
				<path fill="none" stroke="#FFFFFF" stroke-width="2.7185" stroke-linecap="round" stroke-linejoin="round" stroke-miterlimit="10" d="
				M233.941,1003.151c0-0.353,0-0.706,0-1.059"/>
			
				<path fill="none" stroke="#FFFFFF" stroke-width="2.7185" stroke-linecap="round" stroke-linejoin="round" stroke-miterlimit="10" d="
				M188.649,1139.698c0,0.353,0,0.706,0,1.058"/>
			
				<path fill="none" stroke="#FFFFFF" stroke-width="2.7185" stroke-linecap="round" stroke-linejoin="round" stroke-miterlimit="10" d="
				M159.46,1170.394c-0.336,0.706-0.671,1.411-1.007,2.117"/>
			
				<path fill="none" stroke="#FFFFFF" stroke-width="2.7185" stroke-linecap="round" stroke-linejoin="round" stroke-miterlimit="10" d="
				M133.292,1130.171c0,0.353,0,0.706,0,1.058"/>
			
				<path fill="none" stroke="#FFFFFF" stroke-width="2.7185" stroke-linecap="round" stroke-linejoin="round" stroke-miterlimit="10" d="
				M277.22,1150.283c0.335,0,0.671,0,1.006,0"/>
			
				<path fill="none" stroke="#FFFFFF" stroke-width="2.7185" stroke-linecap="round" stroke-linejoin="round" stroke-miterlimit="10" d="
				M289.298,1196.857"/>
			
				<path fill="none" stroke="#FFFFFF" stroke-width="2.7185" stroke-linecap="round" stroke-linejoin="round" stroke-miterlimit="10" d="
				M249.575,881.589c0,0.625,0,1.25,0,1.875"/>
			
				<path fill="none" stroke="#FFFFFF" stroke-width="2.7185" stroke-linecap="round" stroke-linejoin="round" stroke-miterlimit="10" d="
				M137.241,613.433"/>
			
				<path fill="none" stroke="#FFFFFF" stroke-width="2.7185" stroke-linecap="round" stroke-linejoin="round" stroke-miterlimit="10" d="
				M294.151,607.807"/>
			
				<path fill="none" stroke="#FFFFFF" stroke-width="2.7185" stroke-linecap="round" stroke-linejoin="round" stroke-miterlimit="10" d="
				M317.332,701.568c0,0.625,0,1.25,0,1.875"/>
			
				<path fill="none" stroke="#FFFFFF" stroke-width="2.7185" stroke-linecap="round" stroke-linejoin="round" stroke-miterlimit="10" d="
				M465.327,440.913"/>
			
				<path fill="none" stroke="#FFFFFF" stroke-width="2.7185" stroke-linecap="round" stroke-linejoin="round" stroke-miterlimit="10" d="
				M377.956,371.53c0.594,0,1.189,0,1.783,0"/>
			
				<path fill="none" stroke="#FFFFFF" stroke-width="2.7185" stroke-linecap="round" stroke-linejoin="round" stroke-miterlimit="10" d="
				M524.168,322.774c-0.594,0-1.189,0-1.783,0"/>
			
				<path fill="none" stroke="#FFFFFF" stroke-width="2.7185" stroke-linecap="round" stroke-linejoin="round" stroke-miterlimit="10" d="
				M579.443,392.157c-1.189,0-2.377,0-3.566,0"/>
			
				<path fill="none" stroke="#FFFFFF" stroke-width="2.7185" stroke-linecap="round" stroke-linejoin="round" stroke-miterlimit="10" d="
				M231.744,392.157c0,0.625,0,1.25,0,1.875"/>
			
				<path fill="none" stroke="#FFFFFF" stroke-width="2.7185" stroke-linecap="round" stroke-linejoin="round" stroke-miterlimit="10" d="
				M221.046,365.904c0-0.625,0-1.25,0-1.875"/>
			
				<path fill="none" stroke="#FFFFFF" stroke-width="2.7185" stroke-linecap="round" stroke-linejoin="round" stroke-miterlimit="10" d="
				M149.723,379.03"/>
			
				<path fill="none" stroke="#FFFFFF" stroke-width="2.7185" stroke-linecap="round" stroke-linejoin="round" stroke-miterlimit="10" d="
				M251.358,170.881c0.594,0.625,1.189,1.25,1.783,1.875"/>
			
				<path fill="none" stroke="#FFFFFF" stroke-width="2.7185" stroke-linecap="round" stroke-linejoin="round" stroke-miterlimit="10" d="
				M237.093,139.002"/>
			
				<path fill="none" stroke="#FFFFFF" stroke-width="2.7185" stroke-linecap="round" stroke-linejoin="round" stroke-miterlimit="10" d="
				M377.956,140.878"/>
			
				<path fill="none" stroke="#FFFFFF" stroke-width="2.7185" stroke-linecap="round" stroke-linejoin="round" stroke-miterlimit="10" d="
				M158.638,144.628c0-0.625,0-1.25,0-1.875"/>
			
				<path fill="none" stroke="#FFFFFF" stroke-width="2.7185" stroke-linecap="round" stroke-linejoin="round" stroke-miterlimit="10" d="
				M698.909,159.63"/>
			
				<path fill="none" stroke="#FFFFFF" stroke-width="2.7185" stroke-linecap="round" stroke-linejoin="round" stroke-miterlimit="10" d="
				M795.195,73.37"/>
			
				<path fill="none" stroke="#FFFFFF" stroke-width="2.7185" stroke-linecap="round" stroke-linejoin="round" stroke-miterlimit="10" d="
				M820.158,150.254"/>
			
				<path fill="none" stroke="#FFFFFF" stroke-width="2.7185" stroke-linecap="round" stroke-linejoin="round" stroke-miterlimit="10" d="
				M896.83,362.153"/>
			
				<path fill="none" stroke="#FFFFFF" stroke-width="2.7185" stroke-linecap="round" stroke-linejoin="round" stroke-miterlimit="10" d="
				M977.069,349.027"/>
			
				<path fill="none" stroke="#FFFFFF" stroke-width="2.7185" stroke-linecap="round" stroke-linejoin="round" stroke-miterlimit="10" d="
				M1034.127,384.656c0.594,0,1.189,0,1.783,0"/>
			
				<path fill="none" stroke="#FFFFFF" stroke-width="2.7185" stroke-linecap="round" stroke-linejoin="round" stroke-miterlimit="10" d="
				M850.471,690.317c0,0.625,0,1.25,0,1.875"/>
			
				<path fill="none" stroke="#FFFFFF" stroke-width="2.7185" stroke-linecap="round" stroke-linejoin="round" stroke-miterlimit="10" d="
				M732.788,647.187c0.594,0,1.189,0,1.783,0"/>
			
				<path fill="none" stroke="#FFFFFF" stroke-width="2.7185" stroke-linecap="round" stroke-linejoin="round" stroke-miterlimit="10" d="
				M971.719,613.433"/>
			
				<path fill="none" stroke="#FFFFFF" stroke-width="2.7185" stroke-linecap="round" stroke-linejoin="round" stroke-miterlimit="10" d="
				M962.804,1108.49c0.594-0.625,1.189-1.25,1.783-1.875"/>
			
				<path fill="none" stroke="#FFFFFF" stroke-width="2.7185" stroke-linecap="round" stroke-linejoin="round" stroke-miterlimit="10" d="
				M834.423,1232.255"/>
			
				<path fill="none" stroke="#FFFFFF" stroke-width="2.7185" stroke-linecap="round" stroke-linejoin="round" stroke-miterlimit="10" d="
				M1034.127,1159.121c0,0.625,0,1.25,0,1.875"/>
			
				<path fill="none" stroke="#FFFFFF" stroke-width="2.7185" stroke-linecap="round" stroke-linejoin="round" stroke-miterlimit="10" d="
				M1096.535,945.346c0.594,0,1.189,0,1.783,0"/>
			
				<path fill="none" stroke="#FFFFFF" stroke-width="2.7185" stroke-linecap="round" stroke-linejoin="round" stroke-miterlimit="10" d="
				M1137.545,849.71c-0.594,0-1.189,0-1.783,0"/>
			
				<path fill="none" stroke="#FFFFFF" stroke-width="2.7185" stroke-linecap="round" stroke-linejoin="round" stroke-miterlimit="10" d="
				M1267.71,999.728"/>
			
				<path fill="none" stroke="#FFFFFF" stroke-width="2.7185" stroke-linecap="round" stroke-linejoin="round" stroke-miterlimit="10" d="
				M1392.525,924.719"/>
			
				<path fill="none" stroke="#FFFFFF" stroke-width="2.7185" stroke-linecap="round" stroke-linejoin="round" stroke-miterlimit="10" d="
				M1180.339,988.477"/>
			
				<path fill="none" stroke="#FFFFFF" stroke-width="2.7185" stroke-linecap="round" stroke-linejoin="round" stroke-miterlimit="10" d="
				M1363.996,1069.111c-1.783,0-3.566,0-5.349,0"/>
			
				<path fill="none" stroke="#FFFFFF" stroke-width="2.7185" stroke-linecap="round" stroke-linejoin="round" stroke-miterlimit="10" d="
				M1214.218,1080.362c0.594,0,1.189,0,1.783,0"/>
			
				<path fill="none" stroke="#FFFFFF" stroke-width="2.7185" stroke-linecap="round" stroke-linejoin="round" stroke-miterlimit="10" d="
				M1560.134,1136.619"/>
			
				<path fill="none" stroke="#FFFFFF" stroke-width="2.7185" stroke-linecap="round" stroke-linejoin="round" stroke-miterlimit="10" d="
				M1647.505,1134.744"/>
			
				<path fill="none" stroke="#FFFFFF" stroke-width="2.7185" stroke-linecap="round" stroke-linejoin="round" stroke-miterlimit="10" d="
				M1499.509,945.346"/>
			
				<path fill="none" stroke="#FFFFFF" stroke-width="2.7185" stroke-linecap="round" stroke-linejoin="round" stroke-miterlimit="10" d="
				M1643.938,950.972c-0.594,0.625-1.189,1.25-1.783,1.875"/>
			
				<path fill="none" stroke="#FFFFFF" stroke-width="2.7185" stroke-linecap="round" stroke-linejoin="round" stroke-miterlimit="10" d="
				M1754.489,980.976"/>
			
				<path fill="none" stroke="#FFFFFF" stroke-width="2.7185" stroke-linecap="round" stroke-linejoin="round" stroke-miterlimit="10" d="
				M1747.357,1070.986c-0.594-0.625-1.189-1.25-1.783-1.875"/>
			
				<path fill="none" stroke="#FFFFFF" stroke-width="2.7185" stroke-linecap="round" stroke-linejoin="round" stroke-miterlimit="10" d="
				M1831.161,935.97"/>
			
				<path fill="none" stroke="#FFFFFF" stroke-width="2.7185" stroke-linecap="round" stroke-linejoin="round" stroke-miterlimit="10" d="
				M1775.886,1213.503"/>
			
				<path fill="none" stroke="#FFFFFF" stroke-width="2.7185" stroke-linecap="round" stroke-linejoin="round" stroke-miterlimit="10" d="
				M1979.156,744.698c0,0.625,0,1.25,0,1.875"/>
			
				<path fill="none" stroke="#FFFFFF" stroke-width="2.7185" stroke-linecap="round" stroke-linejoin="round" stroke-miterlimit="10" d="
				M2052.262,725.946c0.594,0,1.189,0,1.783,0"/>
			
				<path fill="none" stroke="#FFFFFF" stroke-width="2.7185" stroke-linecap="round" stroke-linejoin="round" stroke-miterlimit="10" d="
				M1950.627,654.688c-0.594,0-1.189,0-1.783,0"/>
			
				<path fill="none" stroke="#FFFFFF" stroke-width="2.7185" stroke-linecap="round" stroke-linejoin="round" stroke-miterlimit="10" d="
				M2034.432,577.804c0,0.625,0,1.25,0,1.875"/>
			
				<path fill="none" stroke="#FFFFFF" stroke-width="2.7185" stroke-linecap="round" stroke-linejoin="round" stroke-miterlimit="10" d="
				M1957.759,309.647C1959.231,309.647,1959.231,309.647,1957.759,309.647"/>
			
				<path fill="none" stroke="#FFFFFF" stroke-width="2.7185" stroke-linecap="round" stroke-linejoin="round" stroke-miterlimit="10" d="
				M1890.002,339.651C1891.474,339.651,1891.474,339.651,1890.002,339.651"/>
			
				<path fill="none" stroke="#FFFFFF" stroke-width="2.7185" stroke-linecap="round" stroke-linejoin="round" stroke-miterlimit="10" d="
				M1813.33,459.665C1813.33,461.213,1813.33,461.213,1813.33,459.665"/>
			
				<path fill="none" stroke="#FFFFFF" stroke-width="2.7185" stroke-linecap="round" stroke-linejoin="round" stroke-miterlimit="10" d="
				M1742.007,140.878"/>
			
				<path fill="none" stroke="#FFFFFF" stroke-width="2.7185" stroke-linecap="round" stroke-linejoin="round" stroke-miterlimit="10" d="
				M1959.542,58.368c-0.594,0-1.189,0-1.783,0"/>
			
				<path fill="none" stroke="#FFFFFF" stroke-width="2.7185" stroke-linecap="round" stroke-linejoin="round" stroke-miterlimit="10" d="
				M2070.093,262.767c-0.594,0-1.189,0-1.783,0"/>
			
				<path fill="none" stroke="#FFFFFF" stroke-width="2.7185" stroke-linecap="round" stroke-linejoin="round" stroke-miterlimit="10" d="
				M2161.03,146.503"/>
			
				<path fill="none" stroke="#FFFFFF" stroke-width="2.7185" stroke-linecap="round" stroke-linejoin="round" stroke-miterlimit="10" d="
				M2209.173,165.256"/>
			
				<path fill="none" stroke="#FFFFFF" stroke-width="2.7185" stroke-linecap="round" stroke-linejoin="round" stroke-miterlimit="10" d="
				M2243.051,305.897c0,0.625,0,1.25,0,1.875"/>
			
				<path fill="none" stroke="#FFFFFF" stroke-width="2.7185" stroke-linecap="round" stroke-linejoin="round" stroke-miterlimit="10" d="
				M2401.745,324.649"/>
			
				<path fill="none" stroke="#FFFFFF" stroke-width="2.7185" stroke-linecap="round" stroke-linejoin="round" stroke-miterlimit="10" d="
				M2457.02,418.41"/>
			
				<path fill="none" stroke="#FFFFFF" stroke-width="2.7185" stroke-linecap="round" stroke-linejoin="round" stroke-miterlimit="10" d="
				M2487.332,319.023"/>
			
				<path fill="none" stroke="#FFFFFF" stroke-width="2.7185" stroke-linecap="round" stroke-linejoin="round" stroke-miterlimit="10" d="
				M2528.343,142.753"/>
			
				<path fill="none" stroke="#FFFFFF" stroke-width="2.7185" stroke-linecap="round" stroke-linejoin="round" stroke-miterlimit="10" d="
				M2581.835,56.493c-0.594,0-1.189,0-1.783,0"/>
			
				<path fill="none" stroke="#FFFFFF" stroke-width="2.7185" stroke-linecap="round" stroke-linejoin="round" stroke-miterlimit="10" d="
				M2647.809,197.134c0,0.625,0,1.25,0,1.875"/>
			
				<path fill="none" stroke="#FFFFFF" stroke-width="2.7185" stroke-linecap="round" stroke-linejoin="round" stroke-miterlimit="10" d="
				M2710.216,152.129c0-0.625,0-1.25,0-1.875"/>
			
				<path fill="none" stroke="#FFFFFF" stroke-width="2.7185" stroke-linecap="round" stroke-linejoin="round" stroke-miterlimit="10" d="
				M2676.338,364.029"/>
			
				<path fill="none" stroke="#FFFFFF" stroke-width="2.7185" stroke-linecap="round" stroke-linejoin="round" stroke-miterlimit="10" d="
				M2606.798,349.027c0.594,0.625,1.189,1.25,1.783,1.875"/>
			
				<path fill="none" stroke="#FFFFFF" stroke-width="2.7185" stroke-linecap="round" stroke-linejoin="round" stroke-miterlimit="10" d="
				M2647.809,439.037c0.594,0,1.189,0,1.783,0"/>
			
				<path fill="none" stroke="#FFFFFF" stroke-width="2.7185" stroke-linecap="round" stroke-linejoin="round" stroke-miterlimit="10" d="
				M2387.48,688.442c-1.188,0-2.377,0-3.566,0"/>
			
				<path fill="none" stroke="#FFFFFF" stroke-width="2.7185" stroke-linecap="round" stroke-linejoin="round" stroke-miterlimit="10" d="
				M2317.94,579.679"/>
			
				<path fill="none" stroke="#FFFFFF" stroke-width="2.7185" stroke-linecap="round" stroke-linejoin="round" stroke-miterlimit="10" d="
				M2225.22,697.818c-0.594,0.625-1.189,1.25-1.783,1.875"/>
			
				<path fill="none" stroke="#FFFFFF" stroke-width="2.7185" stroke-linecap="round" stroke-linejoin="round" stroke-miterlimit="10" d="
				M2185.993,609.682c-0.594-0.625-1.189-1.25-1.783-1.875"/>
			
				<path fill="none" stroke="#FFFFFF" stroke-width="2.7185" stroke-linecap="round" stroke-linejoin="round" stroke-miterlimit="10" d="
				M2253.75,598.431"/>
			
				<path fill="none" stroke="#FFFFFF" stroke-width="2.7185" stroke-linecap="round" stroke-linejoin="round" stroke-miterlimit="10" d="
				M2301.893,755.949"/>
			
				<path fill="none" stroke="#FFFFFF" stroke-width="2.7185" stroke-linecap="round" stroke-linejoin="round" stroke-miterlimit="10" d="
				M2519.427,750.324c-0.594,0-1.189,0-1.783,0"/>
			
				<path fill="none" stroke="#FFFFFF" stroke-width="2.7185" stroke-linecap="round" stroke-linejoin="round" stroke-miterlimit="10" d="
				M2599.666,632.185"/>
			
				<path fill="none" stroke="#FFFFFF" stroke-width="2.7185" stroke-linecap="round" stroke-linejoin="round" stroke-miterlimit="10" d="
				M2457.02,789.703c-0.594,0-1.189,0-1.783,0"/>
			
				<path fill="none" stroke="#FFFFFF" stroke-width="2.7185" stroke-linecap="round" stroke-linejoin="round" stroke-miterlimit="10" d="
				M2615.713,857.211c-0.594,0-1.188,0-1.783,0"/>
			
				<path fill="none" stroke="#FFFFFF" stroke-width="2.7185" stroke-linecap="round" stroke-linejoin="round" stroke-miterlimit="10" d="
				M2428.491,947.222"/>
			
				<path fill="none" stroke="#FFFFFF" stroke-width="2.7185" stroke-linecap="round" stroke-linejoin="round" stroke-miterlimit="10" d="
				M2474.851,1048.484"/>
			
				<path fill="none" stroke="#FFFFFF" stroke-width="2.7185" stroke-linecap="round" stroke-linejoin="round" stroke-miterlimit="10" d="
				M2353.602,1078.487"/>
			
				<path fill="none" stroke="#FFFFFF" stroke-width="2.7185" stroke-linecap="round" stroke-linejoin="round" stroke-miterlimit="10" d="
				M2107.538,887.215C2107.538,888.763,2107.538,888.763,2107.538,887.215"/>
			
				<path fill="none" stroke="#FFFFFF" stroke-width="2.7185" stroke-linecap="round" stroke-linejoin="round" stroke-miterlimit="10" d="
				M2228.787,950.972"/>
			
				<path fill="none" stroke="#FFFFFF" stroke-width="2.7185" stroke-linecap="round" stroke-linejoin="round" stroke-miterlimit="10" d="
				M2219.871,1110.366c-0.594,0-1.189,0-1.783,0"/>
			
				<path fill="none" stroke="#FFFFFF" stroke-width="2.7185" stroke-linecap="round" stroke-linejoin="round" stroke-miterlimit="10" d="
				M2073.659,1175.998c0-0.625,0-1.25,0-1.875"/>
			
				<path fill="none" stroke="#FFFFFF" stroke-width="2.7185" stroke-linecap="round" stroke-linejoin="round" stroke-miterlimit="10" d="
				M2296.543,1198.501c-0.594-0.625-1.189-1.25-1.783-1.875"/>
			
				<path fill="none" stroke="#FFFFFF" stroke-width="2.7185" stroke-linecap="round" stroke-linejoin="round" stroke-miterlimit="10" d="
				M2435.623,1215.378c0,0.625,0,1.25,0,1.875"/>
			
				<path fill="none" stroke="#FFFFFF" stroke-width="2.7185" stroke-linecap="round" stroke-linejoin="round" stroke-miterlimit="10" d="
				M2667.423,1129.118c0.594,0,1.189,0,1.783,0"/>
			
				<path fill="none" stroke="#FFFFFF" stroke-width="2.7185" stroke-linecap="round" stroke-linejoin="round" stroke-miterlimit="10" d="
				M2694.169,1010.979"/>
			
				<path fill="none" stroke="#FFFFFF" stroke-width="2.7185" stroke-linecap="round" stroke-linejoin="round" stroke-miterlimit="10" d="
				M2606.798,1219.128c-0.594,0.625-1.189,1.25-1.783,1.875"/>
		</g>
	</g>
</g>
<g id="Layer_3">
	<linearGradient id="SVGID_2_" gradientUnits="userSpaceOnUse" x1="1165.0271" y1="1350.1438" x2="1165.0271" y2="1797.6244">
		<stop  offset="0.0032" style="stop-color:#0AFFFB"/>
		<stop  offset="1" style="stop-color:#0A7D94"/>
	</linearGradient>
	<rect class="feature-1" x="558.54" y="1355.741" fill="#000fdd" width="1212.974" height="444.259"/>
	<circle opacity="0.05" fill="#FDF1D9" cx="1474.024" cy="636.918" r="631.67"/>
	<circle opacity="0.05" fill="#FDF1D9" cx="1474.024" cy="636.918" r="543.19"/>
	<circle class="feature-2" fill="#FDF1D9" cx="1474.024" cy="636.918" r="458.671"/>
	<g>
		<polygon fill="#853E38" points="1157.185,1290.376 1157.185,1033.13 1117.713,1027.444 1117.713,1016.96 1103.236,1009.472 
			1096.746,985.01 1085.264,985.01 1058.306,949.067 1037.781,942.732 1026.293,914.177 1017.76,901.376 1014.149,930.26 
			998.723,884.965 986.313,865.492 959.316,815.549 959.316,779.104 950.542,742.659 943.793,688.666 939.744,742.659 
			943.793,814.199 933.67,827.022 933.67,762.906 927.967,725.233 927.967,651.735 921.434,603.961 921.434,646.835 
			916.534,699.917 910.409,693.792 904.693,592.936 897.343,592.936 894.394,504.842 886.53,487.149 886.53,432.105 
			879.345,388.012 877.58,428.747 874.468,485.796 875.505,505.85 867.899,487.525 870.665,547.34 859.601,592.634 866.516,637.582 
			865.824,666.625 858.564,659.71 850.957,661.439 856.489,751.335 845.771,761.707 845.425,786.256 826.754,823.597 
			818.456,815.645 818.11,800.086 814.307,773.117 812.578,787.985 807.046,777.612 804.892,743.674 798.057,770.005 
			794.253,814.608 778.003,824.289 765.556,882.375 757.988,869.739 752.141,904.822 726.803,896.376 680.675,898.975 
			679.341,899.667 676.342,892.35 659.494,864.088 649.167,851.044 649.167,814.086 639.928,826.586 635.58,853.218 
			625.797,867.892 623.079,911.372 618.731,895.067 609.492,919.524 606.774,943.982 575.252,950.504 560.347,883.875 
			534.81,819.893 546.185,879.609 546.185,945.517 537.664,928.224 519.547,882.456 523.361,770.897 510.012,721.316 
			523.361,627.874 508.105,590.687 513.826,517.269 498.57,507.734 492.849,405.71 483.314,374.245 483.314,517.269 467.105,484.85 
			475.686,614.525 473.779,648.85 473.779,706.06 483.314,756.556 467.105,779.479 454.328,840.502 467.105,881.503 
			446.269,957.128 441.55,955.484 441.55,931.662 418.832,917.464 414.573,880.548 417.412,849.311 403.214,836.533 
			408.893,745.663 420.252,656.212 441.55,617.877 420.252,588.06 420.252,488.671 393.275,338.167 394.695,388.012 
			401.794,488.671 386.176,532.686 374.817,451.755 386.176,400.64 362.038,343.846 350.68,367.984 336.481,282.793 323.703,223.16 
			323.703,306.931 335.033,667.81 317.943,706.737 315.155,629.474 289.029,551.383 265.547,111.748 255.074,111.748 
			256.645,167.374 244.093,239.454 244.093,341.5 232.484,300.912 232.484,269.202 218.532,357.989 218.532,415.067 202.043,451.85 
			223.068,520.344 207.116,520.344 183.017,445.509 172.544,539.37 138.623,676.356 161.454,756.556 244.093,756.556 
			244.093,1401.365 1157.185,1401.365 1157.185,1348.135 1138.305,1334.676 1143.707,1294.656 		"/>
		<g>
			<polygon fill="#753731" points="810.861,928.213 873.284,1147.268 908.64,998.584 958.098,981.127 894.719,765.797 
				887.93,670.494 880.82,643.394 884.479,598.326 884.969,553.152 882.203,493.337 889.81,511.662 888.807,492.271 886.53,487.149 
				886.53,432.105 879.345,388.012 877.58,428.747 874.468,485.796 875.505,505.85 867.899,487.525 870.665,547.34 859.601,592.634 
				866.516,637.582 865.824,666.625 858.564,659.71 850.957,661.439 856.489,751.335 845.771,761.707 845.425,786.256 
				832.551,812.004 			"/>
			<polygon fill="#753731" points="924.714,699.604 927.967,702.857 927.967,651.735 921.434,603.961 921.434,641.74 			"/>
			<polygon fill="#753731" points="693.646,905.48 694.979,904.787 741.108,902.188 801.171,1052.506 786.505,918.724 
				839.692,1031.68 792.308,830.101 808.558,820.42 811.497,785.957 807.046,777.612 804.892,743.674 798.057,770.005 
				794.253,814.608 778.003,824.289 765.556,882.375 757.988,869.739 752.141,904.822 726.803,896.376 690.747,898.407 			"/>
			<polygon fill="#753731" points="942.272,731.045 947.974,768.718 947.974,832.834 958.098,820.011 954.696,759.912 
				950.542,742.659 943.793,688.666 942.272,708.955 			"/>
			<polygon fill="#753731" points="535.979,826.03 546.185,879.609 546.185,971.874 574.08,1044.175 724.884,1044.175 
				560.489,885.421 560.056,883.146 536.081,823.075 			"/>
			<polygon fill="#753731" points="589.556,956.316 621.079,949.794 623.797,925.337 633.036,900.879 637.384,917.184 
				640.101,873.704 649.884,859.03 650.843,853.16 649.167,851.044 649.167,814.086 639.928,826.586 635.58,853.218 
				625.797,867.892 623.079,911.372 618.731,895.067 609.492,919.524 606.774,943.982 587.681,947.932 			"/>
			<polygon fill="#753731" points="1028.454,936.072 1030.03,923.464 1026.293,914.177 1017.76,901.376 1017.458,903.787 			"/>
			<polygon fill="#753731" points="1097.587,988.18 1096.746,985.01 1095.209,985.01 			"/>
			<polygon fill="#753731" points="1052.086,948.544 1059.67,950.885 1058.306,949.067 1051.444,946.949 			"/>
			<polygon fill="#753731" points="1132.017,1033.256 1157.185,1036.882 1157.185,1033.13 1132.017,1029.505 			"/>
			<polygon fill="#753731" points="238.648,647.423 189.933,610.381 194.122,479.994 183.017,445.509 172.544,539.37 
				138.623,676.356 234.412,786.76 202.043,656.498 			"/>
			<polygon fill="#753731" points="244.093,292.171 246.789,275.014 246.789,306.724 258.397,347.313 258.397,245.266 
				269.327,182.507 265.547,111.748 255.074,111.748 256.645,167.374 244.093,239.454 			"/>
			<polygon fill="#753731" points="219.549,520.344 221.421,526.156 237.372,526.156 216.347,457.663 244.093,451.574 
				232.836,363.802 239.09,324.008 232.484,300.912 232.484,269.202 218.532,357.989 218.532,415.067 202.043,451.85 
				223.068,520.344 			"/>
			<rect x="244.093" y="762.369" fill="#753731" width="14.305" height="638.996"/>
			<polygon fill="#753731" points="497.619,523.081 497.619,490.77 492.849,405.71 483.314,374.245 483.314,494.472 			"/>
			<polygon fill="#753731" points="395.103,393.8 400.48,406.452 397.076,421.772 401.794,488.671 395.841,505.446 400.48,538.498 
				416.099,494.483 412.729,446.697 393.275,338.167 394.695,388.012 			"/>
			<polygon fill="#753731" points="330.967,677.071 332.247,712.549 349.338,673.622 338.007,312.743 338.007,291.949 
				336.481,282.793 323.703,223.16 323.703,306.931 335.033,667.81 			"/>
			<polygon fill="#753731" points="454.328,840.502 467.105,881.503 452.297,935.251 455.854,937.475 455.854,961.296 
				460.574,962.94 481.41,887.315 502.941,868.582 497.619,762.369 498.57,647.423 483.148,516.936 467.105,484.85 475.686,614.525 
				473.779,648.85 473.779,706.06 483.314,756.556 467.105,779.479 			"/>
			<polygon fill="#753731" points="364.984,373.796 370.125,362.873 362.038,343.846 360.528,347.057 			"/>
		</g>
		<g>
			<polygon fill="#BF5950" points="927.967,651.735 921.434,603.961 921.434,630.317 927.967,678.091 			"/>
			<polygon fill="#BF5950" points="886.53,513.505 894.394,531.198 897.343,619.293 904.693,619.293 910.409,720.149 
				916.534,726.273 921.434,673.191 921.434,646.835 916.534,699.917 910.409,693.792 904.693,592.936 897.343,592.936 
				894.394,504.842 886.53,487.149 			"/>
			<polygon fill="#BF5950" points="879.345,388.012 877.915,421.018 877.915,447.374 879.345,414.368 886.53,458.462 
				886.53,432.105 			"/>
			<polygon fill="#BF5950" points="752.141,904.822 726.803,896.376 680.675,898.975 679.341,899.667 676.342,892.35 
				659.494,864.088 649.167,851.044 649.167,877.4 659.494,890.444 671.755,909.112 724.846,905.028 749.638,912.714 			"/>
			<polygon fill="#BF5950" points="818.456,815.645 818.11,800.086 814.307,773.117 812.578,787.985 807.046,777.612 
				804.892,743.674 801.171,758.009 801.171,784.366 804.892,770.031 807.046,803.969 812.578,814.341 814.307,799.474 
				818.11,826.443 818.456,842.002 820.55,844.009 820.55,817.652 			"/>
			<polygon fill="#BF5950" points="519.547,908.812 537.664,954.58 546.185,971.874 546.185,945.517 537.664,928.224 
				520.377,884.551 			"/>
			<polygon fill="#BF5950" points="386.176,559.042 401.794,515.027 400.243,493.041 386.176,532.686 377.084,467.909 
				374.817,478.111 			"/>
			<polygon fill="#BF5950" points="933.67,853.379 943.793,840.556 942.401,815.962 933.67,827.022 			"/>
			<polygon fill="#BF5950" points="522.562,794.284 523.361,770.897 512.472,730.453 510.012,747.672 			"/>
			<polygon fill="#BF5950" points="927.967,751.59 933.67,789.263 933.67,762.906 927.967,725.233 			"/>
			<polygon fill="#BF5950" points="598.07,945.783 575.252,950.504 560.347,883.875 534.81,819.893 544.414,870.311 
				560.347,910.231 575.252,976.86 598.07,972.139 			"/>
			<polygon fill="#BF5950" points="640.706,825.534 640.706,851.891 649.167,840.442 649.167,814.086 			"/>
			<polygon fill="#BF5950" points="943.793,715.023 950.542,769.015 959.316,805.46 959.316,779.104 950.542,742.659 
				943.793,688.666 939.744,742.659 940.594,757.679 			"/>
			<polygon fill="#BF5950" points="265.547,138.104 289.029,577.74 315.155,655.831 317.943,733.094 335.033,694.167 
				334.261,669.569 317.943,706.737 315.155,629.474 289.029,551.383 265.547,111.748 			"/>
			<polygon fill="#BF5950" points="1117.713,1027.444 1117.713,1016.96 1103.236,1009.472 1096.746,985.01 1085.264,985.01 
				1058.306,949.067 1037.781,942.732 1026.293,914.177 1017.76,901.376 1014.149,930.26 998.723,884.965 986.313,865.492 
				959.316,815.549 959.316,841.905 986.313,891.849 998.723,911.322 1014.149,956.616 1017.76,927.733 1026.293,940.533 
				1037.781,969.089 1058.306,975.423 1085.264,1011.367 1096.746,1011.367 1103.236,1035.828 1117.713,1043.317 1117.713,1053.8 
				1157.185,1059.487 1157.185,1033.13 			"/>
			<polygon fill="#BF5950" points="1138.305,1361.033 1157.185,1374.492 1157.185,1348.135 1141.551,1336.99 			"/>
			<polygon fill="#BF5950" points="508.105,617.044 520.568,647.423 523.361,627.874 509.831,594.894 			"/>
			<polygon fill="#BF5950" points="350.68,394.34 362.038,370.203 382.33,417.947 386.176,400.64 362.038,343.846 350.68,367.984 
				336.481,282.793 323.703,223.16 323.703,249.516 336.481,309.15 			"/>
			<polygon fill="#BF5950" points="498.57,534.09 511.868,542.401 513.826,517.269 498.57,507.734 492.849,405.71 483.314,374.245 
				483.314,400.601 492.849,432.067 			"/>
			<polygon fill="#BF5950" points="420.252,515.027 420.252,488.671 393.275,338.167 394.168,369.504 			"/>
			<polygon fill="#BF5950" points="420.252,614.416 433.313,632.702 441.55,617.877 420.252,588.06 			"/>
		</g>
	</g>
	<polygon fill="#5C2822" points="1167.236,1573.843 1183.765,1562.686 1235.007,1553.181 1243.118,1545.302 1154.166,1508.738 
		1197.848,1482.621 1227.448,1482.621 1236.153,1461.727 1337.533,1425.163 1328.434,1390.34 1353.811,1355.741 1300.547,1330.777 
		1289.312,1292.079 1269.963,1272.729 1266.842,1217.178 1256.231,1187.218 1256.231,1210.312 1248.741,1233.407 1240.002,1178.48 
		1227.519,1137.284 1223.707,1171.296 1206.488,1031.052 1177.433,904.351 1179.814,819.566 1158.856,760.979 1163.619,669.05 
		1160.62,564.282 1152.789,531.947 1154.305,459.194 1152.284,385.936 1149.758,385.936 1145.211,509.465 1142.179,630.214 
		1142.179,655.729 1135.106,648.655 1131.822,585.502 1125.507,534.726 1124.124,469.686 1123.454,469.686 1118.947,567.778 
		1117.015,637.537 1124.957,661.577 1128.391,744.214 1124.313,745.716 1119.745,699.833 1114.431,650.231 1114.431,763.606 
		1110.888,814.98 1114.431,953.747 1103.802,921.86 1093.4,858.086 1093.4,933.659 1086.835,957.733 1078.08,1034.335 
		1064.948,1010.26 1059.477,963.205 1054.005,1033.241 1036.496,1060.599 1024.459,1119.691 1018.987,1065.523 1013.516,1096.711 
		1003.667,1027.769 979.592,1020.109 979.592,969.771 962.083,1046.373 952.234,1161.275 842.354,1225.421 842.354,1216.691 
		827.341,1102.597 813.83,1110.103 813.83,964.483 800.319,916.444 806.487,823.435 800.319,836.036 793.886,903.72 
		787.766,836.756 787.766,683.746 783.445,683.746 770.037,836.766 770.037,906.831 760.095,940.916 754.414,916.299 
		743.751,969.507 739.416,1100.651 723.158,1147.256 689.559,1026.782 666.799,861.123 657.044,884.479 664.631,1004.19 
		649.457,1063.801 641.87,951.082 650.541,800.428 647.29,568.487 660.296,501.289 651.625,294.276 641.87,325.707 641.87,468.774 
		619.11,566.319 619.11,659.529 606.104,624.846 599.601,697.464 599.601,775.5 554.08,918.567 554.08,1054.046 491.192,899.392 
		481.301,816.964 481.301,739.565 478.445,737.511 472.142,812.45 467.94,812.45 465.138,630.354 460.236,629.653 460.236,736.81 
		453.232,745.215 455.333,805.797 450.08,807.548 444.827,822.606 438.174,819.454 438.174,743.814 432.571,754.67 427.318,752.218 
		413.311,636.657 427.318,545.258 424.166,501.835 421.015,502.186 420.314,541.757 409.459,584.479 409.459,522.146 
		416.812,476.972 400.004,528.099 400.004,414.289 414.625,307.231 410.538,172.999 422.119,0 400.004,82.428 394.87,172.999 
		376.477,181.205 371.708,222.078 358.994,181.886 342.106,363.675 342.106,363.675 329.26,272.513 317.038,327.98 317.038,407.89 
		295.415,503.781 290.773,647.691 186.973,690.786 172.544,573.719 202.666,414.617 193.307,204.042 172.544,363.143 
		146.513,433.335 158.211,138.529 122,0 95.039,0 85.68,119.811 57.603,138.529 48.244,0 0,0 0,1243.919 0,1268.588 0,1800 
		631.128,1800 911.691,1765.692 1078.83,1703.235 1201.106,1713.791 1341.854,1661.01 1356.098,1636.524 1306.745,1602.181 	"/>
	<g>
		<polygon class="feature-4" fill="#4D211C" points="1114.431,939.84 1111.147,811.222 1110.888,814.98 1114.046,938.687 		"/>
		<polygon class="feature-4" fill="#4D211C" points="1127.822,730.517 1128.391,730.308 1124.957,647.67 1117.37,624.706 1117.015,637.537 
			1124.957,661.577 		"/>
		<polygon class="feature-4" fill="#4D211C" points="1227.448,1468.714 1197.848,1468.714 1154.166,1494.832 1167.949,1500.497 1197.848,1482.621 
			1227.448,1482.621 1236.153,1461.727 1337.533,1425.163 1334.212,1412.454 1236.153,1447.821 		"/>
		<polygon class="feature-4" fill="#4D211C" points="663.925,993.056 664.631,990.284 657.809,882.647 657.044,884.479 		"/>
		<polygon class="feature-4" fill="#4D211C" points="647.471,567.548 660.296,501.289 659.817,489.857 647.29,554.581 		"/>
		<polygon class="feature-4" fill="#4D211C" points="1153.056,519.143 1154.305,459.194 1154.14,453.211 1152.789,518.041 		"/>
		<polygon class="feature-4" fill="#4D211C" points="1159.486,748.832 1163.619,669.05 1163.363,660.092 1158.856,747.073 		"/>
		<polygon class="feature-4" fill="#4D211C" points="1177.781,891.962 1179.814,819.566 1179.452,818.554 1177.433,890.445 		"/>
		<polygon class="feature-4" fill="#4D211C" points="1167.236,1559.937 1183.072,1563.153 1183.765,1562.686 1235.007,1553.181 1243.118,1545.302 
			1230.493,1540.112 1183.765,1548.779 		"/>
		<polygon class="feature-4" fill="#4D211C" points="801.065,905.191 806.487,823.435 805.42,825.614 800.319,902.537 		"/>
		<polygon class="feature-4" fill="#4D211C" points="173.582,568.235 202.666,414.617 202.166,403.355 172.544,559.812 		"/>
		<polygon class="feature-4" fill="#4D211C" points="147.131,417.762 158.211,138.529 157.732,136.696 146.513,419.429 		"/>
		<polygon class="feature-4" fill="#4D211C" points="409.459,522.146 416.812,476.972 412.328,490.611 409.459,508.24 		"/>
		<polygon class="feature-4" fill="#4D211C" points="1341.854,1647.104 1201.106,1699.885 1078.83,1689.329 911.691,1751.786 631.128,1786.094 
			0,1786.094 0,1800 631.128,1800 911.691,1765.692 1078.83,1703.235 1201.106,1713.791 1341.854,1661.01 1356.098,1636.524 
			1350.34,1632.517 		"/>
		<polygon class="feature-4" fill="#4D211C" points="1328.434,1376.434 1331.113,1386.687 1353.811,1355.741 1346.221,1352.183 		"/>
		<polygon class="feature-4" fill="#4D211C" points="400.004,414.289 414.625,307.231 414.279,295.859 400.004,400.383 		"/>
		<polygon class="feature-4" fill="#4D211C" points="410.829,168.651 422.119,0 420.878,4.623 410.538,159.092 		"/>
		<polygon class="feature-4" fill="#4D211C" points="455.333,791.891 453.695,744.659 453.232,745.215 454.856,792.049 		"/>
		<polygon class="feature-4" fill="#4D211C" points="642.302,943.586 650.541,800.428 650.384,789.246 641.87,937.175 		"/>
		<polygon class="feature-4" fill="#4D211C" points="414.252,630.516 427.318,545.258 426.633,535.821 413.311,622.751 		"/>
	</g>
	<path class="feature-4" fill="#4D211C" d="M438.174,743.814l-1.883,3.648c0.628,1.242,1.255,2.483,1.883,3.724V743.814z"/>
	<path class="feature-4" fill="#4D211C" d="M1172,1604.964c-68-16-133-23-188-65c-62-47-105-105-142-172c-9-16-19-31-31-45c-3-4-3-10-6-14
		c-18-23-34-44-40-70c-5-23-6-47-6-70c-1-58,3-115,6-173c12,41,16,84,22,127c4,32,15,63,15,96c0,25,21,42,35,62c1-8-10-16-6-22
		c6,5,15,7,19,13c45,57,100,95,139,157c7,11,21,17,33,20c14.552,3.358,26.875,9.502,38.323,16.819
		c-5.877-6.516-11.057-13.736-15.323-21.819c-31-58-48-119-79-175c9,10,13,23,22,34c17,19,29,38,45,57c7,8,14,15,20,24
		c20,29,32,62,61,82c-1-12,3-23,8-34c15,9,29,21,45,26c26,9,53-8,80-14c-19-2-39-3-52-18c-14-15-28-30-36-49c-25-58-45-116-63-178
		c-4-14-13-28-20-42c17,9,28,26,41,41c41,48,74,102,116,145c-45-80-77-168-77-261c0-29-13-57-18-86c29-11,16-41,14-64
		c-2-31-2-61-8-92c6-1,11,1,16,2c-3-16-11-30-15-45c-2-6-3-10-4-14c-3-6-5-12-3-18c4-14,10-26,13-40
		c10.411-41.645,3.811-80.604,10.704-122.809l-1.084-37.874l-7.831-32.335l1.516-72.753l-2.021-73.258h-2.526l-4.547,123.529
		l-3.031,120.75v25.514l-7.073-7.073l-3.284-63.154l-6.315-50.776l-1.383-65.04h-0.669l-4.507,98.092l-1.932,69.759l7.942,24.04
		l3.434,82.637l-4.078,1.503l-4.567-45.884l-5.314-49.602v113.376l-3.543,51.373l3.543,138.767l-10.629-31.887l-10.402-63.774
		v75.573l-6.566,24.075l-8.755,76.602l-13.132-24.075l-5.472-47.055l-5.472,70.036l-17.509,27.358l-12.037,59.093l-5.472-54.168
		l-5.472,31.188l-9.849-68.942l-24.075-7.66v-50.338l-17.509,76.602l-9.849,114.903l-109.881,64.145v-8.729l-15.012-114.094
		l-13.511,7.506v-145.62l-13.511-48.04l6.168-93.009l-6.168,12.601l-6.433,67.684l-6.12-66.964V683.746h-4.32l-13.409,153.02v70.065
		l-9.942,34.086l-5.681-24.617l-10.663,53.208l-4.335,131.144l-16.258,46.605l-33.599-120.475l-22.761-165.659l-9.755,23.356
		l7.587,119.711l-3.899,15.316c1.002-2.867,2.073-5.718,3.268-8.542c-1.195,2.824-2.266,5.675-3.268,8.542l-9.756,38.326
		c-2.341,11.406-4.636,22.856-7.977,34.132c-35-55-33-124-55-184c13-17,24-35,37-52c4-5,9-11,10-15c8-48-11-92-17-138c5,0,12,7,12,4
		c8-19,1-42,4-63c0-2,5,5,5,3c2-20-8-38-12-58c-7-36,11-66,17-100c6.386-38.317,1.121-76.635-2.13-115.711v95.52l-22.761,97.546
		v93.21l-13.006-34.683l-6.503,72.617V775.5L554.08,918.567v135.48l-62.888-154.655l-9.891-82.428v-77.399l-2.856-2.054
		l-6.303,74.94h-4.202l-2.802-182.097l-4.903-0.7V736.81l-7.004,8.404l2.101,60.582l-5.253,1.751l-5.253,15.058l-6.654-3.152
		v-68.269c-0.627-1.241-1.254-2.482-1.883-3.724l-3.72,7.208l-5.253-2.451l-3.606-29.75
		C399.138,673.027,376.893,622.373,374,565.964c-2-32-22-57-38-85c0-1-5-8,1-6c17,4,26,19,33,35c-5-36-12-72-22-107c9,1,21,0,23-4
		c13-32,6-68,3-103c0-8,13-10,14-17c1-17,0-34-4-51c-3-10-2-20-1-30c1-4,9-2,9-3c4.885-20.515,5.946-41.028,5.06-60.611
		l-2.19,38.645l-18.393,8.206l-4.769,40.873l-12.714-40.192l-16.888,181.789l-12.847-91.162l-12.221,55.467v79.91l-21.623,95.892
		l-4.642,143.91l-92.104,38.239c-6.52,24.596-11.36,49.662-14.669,75.034c-32-59-66-118-91-181c15-7,37-19,39-34c4-48-26-90-50-132
		c-2-2,1-7,2-7c37-18,26-56,22-88c-2-19-7-36-11-55c-5-28-10-54-23-79c18,0,28,17,42,25c1,0,4,0,4,0c5-26-16-51-4-75c3-6,15-8,14-16
		C123.923,79.006,101.23,39.713,103.838,0h-8.799L85.68,119.811l-28.077,18.718L48.244,0H0v1243.919v24.67v77.083
		c58.146,37.266,126.106,59.876,195,78.293c18,5,35,18,52,18c12-1,7-15,5-23c-30-103-56-199-81-305c-3-16-16-26-18-42
		c61,56,101,127,153,195c54,69,107,129,150,205c16,26,47,31,74,33c49,4,95,15,141,29c-3-8-10-13-15-21c-16-23-28-45-42-70
		c-8-13-15-27-22-42c-3-9-12-15-16-24c4,0,8-1,11,1c6,4,13,4,19,8c10,6,23,4,35,6c10,2,19,6,30,7c-18-29-33-57-53-86
		c-49-68-26-145-23-219c0-5-4-10-3-14c0-2-2-9,0-7c7,6,9,18,12,27c35,94,44,201,105,281c24,3,39,22,59,35c23,15,40,33,60,51
		c74,64,127,139,202,200c7,6,26-6,40-4c13,3,25,9,38,11c-13-12-31-18-42-32c29-5,55-18,84-21c38-4,77,7,111,25
		C1238,1618.964,1205,1611.964,1172,1604.964z"/>
	<g>
		<polygon fill="#964238" points="972.888,999.103 972.888,1021.485 996.963,1029.145 1006.811,1098.087 1010.615,1076.406 
			1003.667,1027.769 979.592,1020.109 979.592,969.771 		"/>
		<polygon fill="#964238" points="402.754,585.855 409.459,559.47 409.459,522.146 416.812,476.972 403.976,516.017 
			402.754,523.522 		"/>
		<polygon fill="#964238" points="1017.754,1121.068 1022.329,1098.609 1018.987,1065.523 1014.644,1090.278 		"/>
		<polygon fill="#964238" points="1058.244,1011.636 1071.376,1035.711 1072.667,1024.411 1064.948,1010.26 1059.477,963.205 
			1056.718,998.515 		"/>
		<polygon fill="#964238" points="781.061,838.132 787.181,905.096 790.663,868.461 787.766,836.756 787.766,683.746 
			783.445,683.746 781.061,710.955 		"/>
		<polygon fill="#964238" points="793.614,917.82 807.126,965.859 807.126,1111.479 813.83,1107.755 813.83,964.483 
			800.319,916.444 806.487,823.435 800.319,836.036 796.081,880.624 		"/>
		<polygon fill="#964238" points="835.649,1218.067 835.649,1226.797 842.354,1222.883 842.354,1216.691 827.341,1102.597 
			820.925,1106.162 		"/>
		<polygon fill="#964238" points="1125.118,586.878 1128.402,650.031 1135.475,657.105 1135.475,649.024 1135.106,648.655 
			1131.822,585.502 1125.507,534.726 1124.124,469.686 1123.454,469.686 1119.971,545.495 		"/>
		<polygon fill="#964238" points="1235.007,1553.181 1243.118,1545.302 1154.166,1508.738 1195.546,1483.997 1191.144,1483.997 
			1147.462,1510.114 1236.414,1546.678 1228.471,1554.393 		"/>
		<polygon fill="#964238" points="1117.608,747.093 1121.687,745.59 1119.813,700.514 1119.745,699.833 1114.614,651.94 
			1114.431,651.385 1114.431,715.172 		"/>
		<polygon fill="#964238" points="1260.137,1218.554 1263.258,1274.106 1282.607,1293.455 1293.842,1332.153 1348.116,1355.741 
			1321.73,1391.716 1330.828,1426.539 1229.449,1463.103 1221.317,1482.621 1227.448,1482.621 1236.153,1461.727 1337.533,1425.163 
			1328.434,1390.34 1353.811,1355.741 1300.547,1330.777 1289.312,1292.079 1269.963,1272.729 1266.842,1217.178 1256.231,1187.218 
			1256.231,1207.525 		"/>
		<polygon fill="#964238" points="1147.6,460.571 1146.085,533.324 1153.916,565.658 1156.915,670.426 1152.152,762.355 
			1173.11,820.943 1170.728,905.727 1199.783,1032.428 1217.002,1172.672 1220.282,1143.407 1206.488,1031.052 1177.433,904.351 
			1179.814,819.566 1158.856,760.979 1163.619,669.05 1160.62,564.282 1152.789,531.947 1154.305,459.194 1152.284,385.936 
			1149.758,385.936 1147.348,451.411 		"/>
		<polygon fill="#964238" points="1233.298,1179.856 1242.036,1234.783 1246.681,1220.461 1240.002,1178.48 1227.519,1137.284 
			1225.596,1154.44 		"/>
		<polygon fill="#964238" points="753.391,942.292 757.311,928.851 754.414,916.299 751.15,932.585 		"/>
		<polygon fill="#964238" points="1097.097,923.236 1107.726,955.123 1107.132,931.851 1103.802,921.86 1093.4,858.086 
			1093.4,900.569 		"/>
		<polygon fill="#964238" points="474.596,818.34 484.488,900.768 547.375,1055.423 547.375,1037.559 491.192,899.392 
			481.301,816.964 481.301,739.565 478.445,737.511 474.596,783.27 		"/>
		<polygon fill="#964238" points="365.004,223.454 366.928,206.965 358.994,181.886 357.373,199.332 		"/>
		<polygon fill="#964238" points="335.402,365.051 338.142,335.548 329.26,272.513 325.052,291.608 		"/>
		<polygon fill="#964238" points="115.296,1.376 151.507,139.905 139.808,434.711 147.255,414.632 158.211,138.529 122,0 95.039,0 
			94.931,1.376 		"/>
		<polygon fill="#964238" points="195.962,415.993 165.84,575.095 180.268,692.162 186.808,689.447 172.544,573.719 
			202.666,414.617 193.307,204.042 188.26,242.714 		"/>
		<polygon fill="#964238" points="1167.236,1573.843 1183.494,1562.869 1177.061,1564.062 1160.531,1575.219 1300.041,1603.557 
			1349.394,1637.901 1335.15,1662.387 1198.639,1713.578 1201.106,1713.791 1341.854,1661.01 1356.098,1636.524 1306.745,1602.181 
					"/>
		<polygon fill="#964238" points="41.54,1.376 50.898,139.905 57.403,135.569 48.244,0 0,0 0,1.376 		"/>
		<polygon fill="#964238" points="1072.126,1704.611 907.199,1766.242 911.691,1765.692 1074.58,1704.823 		"/>
		<polygon fill="#964238" points="403.834,174.375 407.921,308.607 393.299,415.665 393.299,529.475 400.004,509.083 
			400.004,414.289 414.625,307.231 410.538,172.999 422.119,0 413.308,32.839 		"/>
		<polygon fill="#964238" points="612.405,660.905 612.405,641.651 606.104,624.846 604.712,640.389 		"/>
		<polygon fill="#964238" points="653.591,502.665 640.585,569.863 643.837,801.804 635.166,952.458 642.753,1065.177 
			648.129,1044.058 641.87,951.082 650.541,800.428 647.29,568.487 660.296,501.289 651.625,294.276 645.667,313.474 		"/>
		<polygon fill="#964238" points="461.235,813.827 465.437,813.827 467.571,788.465 465.138,630.354 460.236,629.653 
			460.236,736.81 460.054,737.028 		"/>
		<polygon fill="#964238" points="431.469,820.83 438.123,823.982 439.486,820.075 438.174,819.454 438.174,743.814 432.571,754.67 
			431.469,754.156 		"/>
		<polygon fill="#964238" points="420.314,541.757 420.272,541.924 420.614,546.635 406.606,638.033 420.614,753.595 
			425.866,756.046 427.74,752.415 427.318,752.218 413.311,636.657 427.318,545.258 424.166,501.835 421.015,502.186 		"/>
		<polygon fill="#964238" points="682.855,1028.158 716.454,1148.633 720.393,1137.341 689.559,1026.782 666.799,861.123 
			661.612,873.543 		"/>
	</g>
	<g>
		<polygon fill="#853E38" points="2850,1260.181 2850,0 2818.483,0 2812.369,110.265 2794.027,95.367 2787.912,0 2770.299,0 
			2746.642,110.265 2754.285,344.923 2737.279,289.052 2723.715,162.412 2717.601,330.024 2737.279,456.664 2727.853,549.847 
			2660.041,515.545 2657.009,400.996 2642.883,324.669 2642.883,261.063 2634.899,216.913 2626.506,289.475 2615.473,144.776 
			2606.817,365.089 2594.147,440.605 2577.701,379.657 2582.506,415.614 2582.506,465.23 2575.414,431.223 2574.956,399.726 
			2572.897,399.447 2570.838,434.011 2579.989,506.762 2570.838,598.745 2567.407,600.696 2563.746,592.056 2563.746,652.263 
			2559.4,654.772 2555.968,642.786 2552.536,641.392 2553.909,593.171 2549.334,586.481 2549.334,501.187 2546.131,501.744 
			2544.301,646.688 2541.555,646.688 2537.438,587.038 2535.572,588.673 2535.572,650.281 2529.11,715.891 2488.026,838.992 
			2488.026,731.154 2458.288,617.277 2458.288,555.162 2454.04,497.361 2445.543,524.967 2445.543,450.775 2430.674,373.131 
			2430.674,259.254 2424.301,234.235 2418.637,399.012 2427.134,452.5 2425.009,637.119 2430.674,757.035 2425.717,846.757 
			2415.804,799.308 2420.761,704.021 2414.388,685.431 2399.519,817.29 2377.569,913.185 2366.948,876.089 2364.116,771.701 
			2357.15,729.349 2353.439,748.944 2346.944,721.812 2346.944,666.043 2338.185,544.244 2335.362,544.244 2335.362,666.035 
			2331.364,719.336 2327.161,665.462 2323.132,655.432 2327.161,729.464 2318.335,767.702 2318.335,883.612 2309.508,877.637 
			2299.701,968.453 2299.701,975.401 2227.917,924.343 2221.483,832.884 2210.044,771.911 2210.044,811.979 2194.316,818.076 
			2187.882,872.952 2184.308,848.127 2180.733,891.244 2172.869,844.208 2161.431,822.432 2157.857,766.685 2154.282,804.14 
			2145.703,823.303 2139.984,762.33 2135.695,743.167 2135.695,683.013 2128.899,733.775 2121.956,759.156 2122.567,712.725 
			2120.252,671.833 2120.252,581.589 2116.781,621.071 2113.797,657.593 2111.132,656.397 2113.376,590.62 2118.564,571.485 
			2117.302,515.959 2114.358,437.88 2113.92,437.88 2113.017,489.65 2108.891,530.066 2106.745,580.335 2102.125,585.965 
			2102.125,565.657 2100.144,469.543 2097.174,371.218 2095.523,371.218 2089.536,504.42 2074.944,523.245 2074.086,567.169 
			2089.107,599.59 2088.807,849.747 2050.567,932.319 2048.077,905.247 2039.921,938.038 2034.213,981.758 2029.32,963.376 
			2029.32,944.993 2022.388,968.841 2020.349,1013.058 2007.708,1028.459 2000.368,1059.262 1990.896,1241.174 		"/>
		<path fill="#753731" d="M2818.483,0l-6.114,110.266l-18.342-14.899L2787.912,0l-6.914,40.622l-10.095,117.981l9.44,271.931
			l-43.065-141.482l-13.564-126.64l-6.114,167.612l19.678,126.641l-9.426,93.182l-67.811-34.302l-3.033-114.549l-14.126-76.327
			v-63.606l-7.984-44.15l-8.393,72.562l-11.033-144.699l18.895,242.849l-27.684,99.443l-28.983-107.411l4.804,35.957v49.615
			l-7.092-34.006l-0.458-31.497l-2.059-0.279l-2.059,34.564l9.151,72.751l-9.151,91.984l-3.431,1.951l-3.66-8.641v60.208
			l-4.347,2.509l-3.432-11.986l-3.432-1.394l1.373-48.222l-4.576-6.69v-85.294l-3.203,0.557l-1.83,144.944h-2.745l-4.118-59.65
			l-1.865,1.635v61.608l-6.462,65.61l-41.084,123.101V731.154l-29.738-113.877v-62.115l-4.248-57.801l-8.497,27.607v-74.193
			l-14.869-77.643V259.254l-6.373-25.018l-5.665,164.777l8.497,53.488l28.45,190.625l9.141,139.455l-25.191,122.257l-23.729-105.529
			l4.957-95.287l-6.373-18.59l-3.643,174.916l-19.441,86.739l-24.356-70.996l-2.832-104.387l-6.966-42.352l-3.711,19.595
			l-6.495-27.131v-55.77l-8.76-121.799h-2.822v121.791l-3.999,53.302l-4.202-53.875l-4.03-10.03l4.03,74.032l24.138,114.805
			l-2.617,69.914l-11.216,48.23l17.861,67.297l-55.626-54.31l-71.784-51.058l-6.434-91.459l-11.438-60.973v40.068l-8.668,64.07
			l10.095,43.964l-12.338,13.613l-8.599,2.243l-17.665-91.661l-11.438-21.776l-3.575-55.747l-3.574,37.455l-8.579,19.163
			l-5.719-60.973l-4.289-19.163v-60.154l-6.795,50.762l-6.944,25.381l0.611-46.432l-2.314-40.892v-90.244l-3.472,39.482
			l-2.984,36.522l-2.664-1.196l2.244-65.777l5.188-19.135l-1.262-55.526l-2.945-78.078h-0.438l-0.904,51.77l-4.126,40.416
			l-2.145,50.269l-4.621,5.63v-20.308l-1.98-96.113l-2.97-98.325h-1.65l-5.988,133.202l-4.174,5.384
			c2.369,31.429,6.611,62.923,11.638,94.16c2,12,8,27,7,41c-2,17-2,32,5,47c4,10-14,23-11,39c2,6,10,10,10,12c1,16-10,35,0,50
			c8,11,34,14,25,35c-15,37-42,69-45,109c-1,2,3,2,5,1c22-15,42-33,68-35c-31,40-57,84-77,130c-3,6-8,16-1,19c12,6,21-4,31-9
			c29-16,58-30,90-39c6-2,12,3,8,9c-24,35-48,66-55,108c-3,17,0,49,17,45c73-14,121-70,185-108c6-3,16-3,23,2c5-26-7-53-2-79
			c23,8,36,36,46,58c7,15,26,31,42,16c17-16,23-38,38-56c16-18,44-41,66-18c23,22,22,57,43,80c-17-74-55-146-43-225
			c4-31,34-51,65-58c16-4,33-1,46,11c18,14,34,35,58,36c-1-59-14-117-3-178c7-38,12-74,18-112c3-13,1-25,4-37c0,0,3,2,3,3
			c8,12,11,25,21,36c19.647,22.166,43.606,40.019,66,59.181V0H2818.483z"/>
		<g>
			<polygon fill="#BF5950" points="2582.506,443.727 2588.414,472.057 2588.414,422.442 2587.598,416.332 2577.701,379.657 
				2582.506,415.614 			"/>
			<polygon fill="#BF5950" points="2569.837,599.314 2573.315,607.524 2576.747,605.573 2585.897,513.589 2576.747,440.838 
				2576.896,438.33 2575.414,431.223 2574.956,399.726 2572.897,399.447 2570.838,434.011 2579.989,506.762 2570.838,598.745 			"/>
			<polygon fill="#BF5950" points="2451.451,531.795 2455.584,518.368 2454.04,497.361 2451.451,505.771 			"/>
			<polygon fill="#BF5950" points="2565.308,661.599 2569.655,659.091 2569.655,599.418 2567.407,600.696 2563.746,592.056 
				2563.746,652.263 2562.792,652.814 			"/>
			<polygon fill="#BF5950" points="2493.935,845.82 2535.018,722.719 2541.48,657.109 2541.48,645.599 2537.438,587.038 
				2535.572,588.673 2535.572,650.281 2529.11,715.891 2493.935,821.289 			"/>
			<polygon fill="#BF5950" points="2547.464,653.516 2550.209,653.516 2551.024,588.952 2549.333,586.481 2549.333,501.187 
				2546.131,501.744 2544.717,613.727 			"/>
			<polygon fill="#BF5950" points="2600.055,447.432 2612.725,371.917 2619.549,198.235 2615.473,144.776 2606.817,365.089 
				2595.706,431.313 			"/>
			<polygon fill="#BF5950" points="2799.935,102.194 2818.277,117.093 2824.391,6.828 2850,6.828 2850,0 2818.483,0 
				2812.369,110.265 2799.797,100.054 			"/>
			<polygon fill="#BF5950" points="2760.193,351.751 2752.551,117.093 2776.207,6.828 2788.35,6.828 2787.912,0 2770.299,0 
				2746.642,110.265 2753.826,330.833 			"/>
			<polygon fill="#BF5950" points="2632.414,296.303 2638.984,239.503 2634.899,216.913 2629.753,261.401 			"/>
			<polygon fill="#BF5950" points="2727.853,549.847 2665.847,518.481 2665.95,522.372 2733.761,556.674 2743.187,463.492 
				2723.509,336.852 2728.308,205.294 2723.715,162.412 2717.601,330.024 2737.279,456.664 			"/>
			<polygon fill="#BF5950" points="2151.612,830.13 2160.19,810.967 2160.493,807.798 2157.856,766.685 2154.282,804.14 
				2150.059,813.574 			"/>
			<polygon fill="#BF5950" points="2108.192,572.183 2108.192,570.307 2112.882,570.307 2112.882,490.965 2108.891,530.066 
				2107.723,557.435 2108.026,572.183 			"/>
			<polygon fill="#BF5950" points="2088.807,849.747 2054.972,922.808 2056.476,939.147 2094.716,856.575 2095.015,606.417 
				2079.994,573.997 2080.852,530.072 2095.444,511.248 2099.009,431.95 2097.174,371.218 2095.523,371.218 2089.536,504.42 
				2074.944,523.245 2074.086,567.169 2089.107,599.59 			"/>
			<polygon fill="#BF5950" points="2127.864,765.984 2134.808,740.603 2135.695,733.977 2135.695,683.013 2128.899,733.775 
				2128.257,736.124 			"/>
			<polygon fill="#BF5950" points="2040.121,988.586 2045.83,944.865 2050.13,927.572 2048.077,905.247 2039.921,938.038 
				2035.559,971.447 			"/>
			<polygon fill="#BF5950" points="2006.277,1066.09 2013.616,1035.287 2026.257,1019.886 2028.296,975.668 2030.538,967.954 
				2029.32,963.376 2029.32,944.993 2022.388,968.841 2020.349,1013.058 2007.708,1028.459 2000.368,1059.262 1990.896,1241.174 
				1997.153,1241.312 			"/>
			<polygon fill="#BF5950" points="2337.272,726.164 2341.271,672.862 2341.271,587.151 2338.185,544.244 2335.362,544.244 
				2335.362,666.035 2333.999,684.206 			"/>
			<polygon fill="#BF5950" points="2359.347,755.771 2360.498,749.699 2357.15,729.349 2355.327,738.976 			"/>
			<polygon fill="#BF5950" points="2186.642,898.071 2190.216,854.955 2193.791,879.78 2200.225,824.904 2215.952,818.807 
				2215.952,803.405 2210.044,771.911 2210.044,811.979 2194.316,818.076 2187.882,872.952 2184.308,848.127 2182.313,872.184 			
				"/>
			<polygon fill="#BF5950" points="2383.478,920.013 2405.427,824.118 2419.414,700.09 2414.388,685.431 2399.519,817.29 
				2379.326,905.511 			"/>
			<polygon fill="#BF5950" points="2425.009,637.119 2430.674,757.035 2426.655,829.79 2431.625,853.584 2436.582,763.863 
				2430.917,643.947 2433.042,459.328 2424.545,405.84 2429.714,255.485 2424.301,234.235 2418.637,399.012 2427.134,452.5 			"/>
			<polygon fill="#BF5950" points="2233.825,931.171 2305.609,982.229 2305.609,975.281 2315.416,884.465 2324.243,890.44 
				2324.243,774.53 2333.07,736.292 2331.818,713.288 2331.364,719.336 2327.161,665.462 2323.132,655.432 2327.161,729.464 
				2318.334,767.702 2318.334,883.612 2309.508,877.637 2299.701,968.453 2299.701,975.401 2233.631,928.407 			"/>
		</g>
	</g>
	<polygon fill="#5C2822" points="2832.479,77.64 2834.672,0 2820.054,0 2787.279,613.626 2750.814,722.624 2746.923,830.464 
		2723.069,776.131 2738.883,272.429 2738.883,155.504 2721.047,238.739 2701.23,357.645 2685.376,323.955 2651.686,403.225 
		2667.54,474.569 2651.686,587.53 2629.886,526.095 2639.795,385.599 2641.777,316.028 2604.123,526.095 2604.123,613.293 
		2604.123,664.819 2574.397,706.436 2604.123,759.944 2619.977,884.795 2627.904,1011.628 2608.087,1029.464 2612.05,1073.063 
		2606.105,1124.589 2574.397,1144.406 2574.397,1177.655 2567.809,1179.95 2538.728,1074.395 2556.562,1017.169 2538.728,931.994 
		2516.103,900 2529.412,829.519 2529.412,749.668 2526.75,701.757 2538.728,520.762 2516.103,566.011 2516.103,414.294 
		2516.103,366.383 2502.795,410.301 2494.81,552.702 2473.516,566.011 2481.501,668.486 2460.208,720.389 2478.839,850.813 
		2460.208,920.017 2465.531,1075.726 2440.245,1139.607 2428.351,1163.745 2428.351,1071.752 2444.227,988.403 2408.584,1077.706 
		2387.781,1170.705 2343.782,1161.602 2339.989,1127.465 2327.093,1093.328 2321.024,1116.086 2317.231,1055.398 2303.577,1034.916 
		2297.508,997.745 2284.612,980.297 2284.612,1031.882 2270.198,1050.088 2246.682,1089.535 2242.496,1099.749 2240.635,1098.782 
		2176.251,1095.155 2140.885,1106.943 2132.724,1057.975 2122.161,1075.614 2104.788,994.538 2082.106,981.026 2076.797,918.772 
		2067.258,882.019 2064.25,929.389 2056.529,943.867 2054.116,923.115 2048.807,960.757 2048.325,982.474 2036.742,993.573 
		2010.683,941.454 2010.2,907.19 1995.24,892.712 2002.961,767.239 1992.344,764.826 1982.21,774.477 1981.245,733.94 
		1990.896,671.203 1975.453,607.984 1979.314,524.496 1968.697,550.073 1970.145,522.083 1965.802,442.455 1963.339,385.599 
		1953.309,447.143 1953.309,523.971 1942.333,548.666 1938.217,671.625 1927.959,671.625 1919.98,812.396 1911.431,820.945 
		1904.592,746.855 1904.592,687.013 1895.473,753.694 1895.473,856.28 1887.514,908.862 1887.514,998.354 1873.383,980.456 
		1879.036,880.602 1873.383,805.241 1863.963,880.602 1851.717,931.471 1851.717,982.34 1814.037,1052.048 1796.715,1079.228 
		1775.184,1142.449 1770.144,1102.134 1758.233,1120.001 1742.199,1159.857 1713.551,1168.699 1675.924,1218.868 1659.898,1218.868 
		1650.84,1253.01 1630.633,1263.462 1630.633,1278.095 1548.412,1289.94 1498.244,1313.631 1510.089,1324.083 1440.749,1345.491 
		1370.329,1355.741 1356.098,1393.188 1374.139,1434.116 1292.6,1473.14 1281.222,1493.828 1248.12,1504.172 1225.363,1517.62 
		1280.187,1536.239 1333.977,1536.239 1341.218,1551.756 1301.91,1573.478 1297.772,1586.926 1353.631,1586.926 1392.939,1604.511 
		1447.763,1604.511 1594.351,1651.06 1601.891,1706.918 1497.415,1781.396 1439.23,1800 2408.584,1800 2408.584,1800 2850,1800 
		2850,178.247 	"/>
	<path fill="#4D211C" d="M2428.351,1159.834v-41.039C2426.302,1132.552,2426.158,1146.469,2428.351,1159.834z"/>
	<path fill="#4D211C" d="M2832.479,77.64L2834.672,0h-1.906c-9.649,66.645,5.972,135.059,4.234,201.964c0,26,2,52-2,78
		c-2,15-7,31-5,46c4,39,11,79-8,115c-2,3-2,8-1,11c8,16,21,29,17,48c-12,51-4,102-8,153c-3,38-28,69-35,107c-1,2,4,8,4,12
		c5,65,14,130,11,195c-30,34-35,79-48,120c-24-84-14-172-19-258c-0.232-3.139-0.524-6.263-0.854-9.379l-19.078-43.454
		l15.814-503.703V155.504l-17.836,83.234l-0.213,1.28c-1.09,55.917,1.009,110.906-17.834,163.946c-1,4-11-3-18-5c12,63,8,128-14,189
		c-2,8,3,16,2,24c0,3-2,7-3,10c-8.531-10.538-14.29-23.091-18.039-36.394l-0.275,1.96l-21.799-61.435l9.909-140.496l1.982-69.571
		l-22.524,125.66c-1.07,12.128-1.875,24.203-2.253,36.277c-2,19-4,39-1,58c0,6,6,11,8,18c8,28,19,54,31,81c15,34-17,59-34,85
		c16,11,31,26,34,46c13,84,9,165,17,249c1,13,4,25,6,38c0,7,4,17,0,21c-27,24-25,58-28,90c0,3-1,9-4,11c-6,2-12,8-11,12
		c3,31-8,68-31,89c-23.189-27.827-30.246-61.703-34.614-96.563l-1.576,0.549l-29.082-105.555l17.834-57.226l-17.834-85.174
		L2516.103,900l13.309-70.481v-79.851l-2.662-47.911l11.978-180.995l-22.625,45.249V414.294v-47.911l-12.798,42.233
		c-0.097,53.791,1.456,107.28,0.695,161.348c0,12-9,24-8,35c0,4,13,7,13,12c1,39,2,81-20,116c21,47,19,101,10,152c-2,12-16,22-14,33
		c2,10,5,22,6,32c5,78-3,154-14,233c-2,14-1,28-11,40c-21.097-15.71-32.719-37.064-37.137-60.259l-0.512,1.039v-3.911
		c-2.193-13.365-2.049-27.282,0-41.039v-47.042l15.876-83.35l-35.643,89.303l-20.803,92.999l-43.999-9.103l-3.793-34.137
		l-12.896-34.137l-6.069,22.758l-3.793-60.688l-13.655-20.482l-6.069-37.171l-12.896-17.448v0.834
		c12.344,23.58,11.307,46.255,6.388,71.833c-8,37,7,71,7,107c-8-11-20-27-27-25c-33,8-62,34-96,43c15-23,36-41,47-66
		c-13-3-26,4-37-2c-4.962-3.473-8.443-8.426-10.817-14.12l-33.298,11.099l-8.161-48.968l-10.563,17.638l-17.373-81.075
		l-22.682-13.513l-5.309-62.254l-9.54-36.752l-0.198,3.115c13.884,36.94-3.055,72.885-0.06,108.831c2,28-12,54-29,75
		c3.078-28.472-2.132-56.352-5.609-84.095l-21.708-43.416l-0.483-34.264l-14.96-14.478l7.721-125.473l-10.617-2.413l-10.134,9.652
		l-0.965-40.538l9.652-62.737l-15.443-63.219l3.861-83.488l-10.617,25.577l1.448-27.99l-4.343-79.627l-2.463-56.857l-10.03,61.544
		v35.303c1.451,29.645,5.769,60.006,6.691,89.518c2,74-1,145-17,220c-3,14-1,28,0,43c7,49-16,96-8,143c4,21,33,29,47,48
		c-14,16-32,29-48,44c-50,47-84,105-133,153c-18,17-44,28-50,55c-4,18-1,36-6,54c-4,15-20,23-36,27c-25,8-45,27-71,36c-2,0-3,5-6,6
		c-7,2-14,3-19,7c-10,8-22,12-32,17c-38,20-84,23-109,61c-2,3,8,0,11,0c63-22,127-34,194-41c31-3,60-11,88-30c19-13,37-23,57-34
		c53-31,102-57,154-91c17-11,34-13,52-16c0,4,4,7,2,11c-8,19-11,39-18,58c-5,15-15,28-24,42c-34,48-72,84-109,129
		c-46,58-118,81-187,104c-4,2-7,5-11,7c-33,15-66-4-96-18c-28-13-62-7-93-8c13,3,26,3,38,9c22,10,45,16,67,28c8,4,16,12,25,16
		c24,10,51,6,75-1c105-28,218-46,294-125c39-71,80-140,147-191c3-2,9-4,11-6c28-36,61-61,92-94c5-6,8-14,15-19c9,26,3,66-20,84
		c4,46-45,65-71,97c-20,25-36,51-46,81c-6,16-6,33-15,48c-11,18-26,33-43,46c-42,34-81,66-119,102c24,3,47-1,71,2c49,5,95,6,144-6
		c16-3,32,3,33,19c2,18,6,43,27,42c87-7,170-31,245-83c72-49,104-121,156-187c4-5,13-13,19-4c12,22,13,47,20,71c4,15,11,28,16,43
		c3,9,4,19,0,28c-34.794,68.251-70.036,134.266-105.126,201.036H2850V178.247L2832.479,77.64z"/>
	<g>
		<polygon fill="#964238" points="2465.531,1075.726 2440.245,1139.607 2433.556,1153.181 2433.556,1168.95 2445.45,1144.812 
			2470.736,1080.931 2465.413,925.222 2484.045,856.018 2465.413,725.595 2486.706,673.692 2478.721,571.216 2500.015,557.908 
			2508,415.507 2516.103,388.767 2516.103,366.383 2502.795,410.301 2494.81,552.702 2473.516,566.011 2481.501,668.486 
			2460.208,720.389 2478.839,850.813 2460.208,920.017 		"/>
		<polygon fill="#964238" points="2326.23,1121.291 2330.958,1103.559 2327.093,1093.328 2324.978,1101.26 		"/>
		<polygon fill="#964238" points="2348.988,1166.807 2392.986,1175.91 2413.79,1082.911 2437.578,1023.309 2444.227,988.403 
			2408.584,1077.706 2387.781,1170.705 2348.518,1162.581 		"/>
		<polygon fill="#964238" points="2061.734,949.072 2069.455,934.594 2071.706,899.155 2067.258,882.019 2064.25,929.389 
			2060.305,936.785 		"/>
		<polygon fill="#964238" points="2146.09,1112.149 2181.456,1100.36 2245.84,1103.987 2247.701,1104.954 2251.887,1094.74 
			2275.404,1055.293 2289.817,1037.087 2289.817,987.34 2284.612,980.297 2284.612,1031.882 2270.198,1050.088 2246.682,1089.535 
			2242.496,1099.749 2240.635,1098.782 2176.251,1095.155 2144.995,1105.574 		"/>
		<polygon fill="#964238" points="2087.311,986.231 2105.304,996.951 2104.788,994.538 2087.122,984.014 		"/>
		<polygon fill="#964238" points="2752.128,835.67 2756.019,727.829 2792.484,618.832 2825.26,5.205 2834.525,5.205 2834.672,0 
			2820.054,0 2787.279,613.626 2750.814,722.624 2747.144,824.318 		"/>
		<polygon fill="#964238" points="2706.435,362.85 2726.253,243.944 2738.883,185.002 2738.883,155.504 2721.047,238.739 
			2701.951,353.32 		"/>
		<polygon fill="#964238" points="2521.308,571.216 2537.537,538.76 2538.728,520.762 2521.308,555.6 		"/>
		<polygon fill="#964238" points="2573.015,1185.155 2579.602,1182.861 2579.602,1149.612 2611.31,1129.794 2617.256,1078.268 
			2613.292,1034.669 2633.11,1016.833 2625.183,890 2609.329,765.149 2579.602,711.641 2609.329,670.024 2609.329,618.498 
			2609.329,531.3 2640.617,356.745 2641.777,316.028 2604.123,526.095 2604.123,613.293 2604.123,664.819 2574.397,706.436 
			2604.123,759.944 2619.977,884.795 2627.904,1011.628 2608.087,1029.464 2612.05,1073.063 2606.105,1124.589 2574.397,1144.406 
			2574.397,1177.655 2571.25,1178.751 		"/>
		<polygon fill="#964238" points="2652.637,580.748 2656.891,592.735 2672.745,479.774 2656.891,408.431 2689.273,332.237 
			2685.376,323.955 2651.686,403.225 2667.54,474.569 		"/>
		<polygon fill="#964238" points="2127.366,1080.819 2134.536,1068.847 2132.724,1057.975 2125.173,1070.584 		"/>
		<polygon fill="#964238" points="1780.389,1147.654 1801.921,1084.433 1819.242,1057.254 1856.923,987.545 1856.923,936.676 
			1869.169,885.807 1875.579,834.521 1873.383,805.241 1863.963,880.602 1851.717,931.471 1851.717,982.34 1814.037,1052.048 
			1796.715,1079.228 1778.515,1132.666 		"/>
		<polygon fill="#964238" points="1253.326,1509.378 1286.427,1499.033 1297.806,1478.345 1379.344,1439.321 1361.303,1398.393 
			1374.264,1363.115 1445.955,1350.696 1515.294,1329.288 1509.575,1324.241 1440.749,1345.491 1370.329,1355.741 
			1356.098,1393.188 1374.139,1434.116 1292.6,1473.14 1281.222,1493.828 1248.12,1504.172 1225.363,1517.62 1234.262,1520.642 		
			"/>
		<polygon fill="#964238" points="1553.618,1295.145 1635.838,1283.3 1635.838,1268.667 1656.045,1258.216 1665.104,1224.073 
			1681.13,1224.073 1718.756,1173.904 1747.404,1165.062 1763.438,1125.206 1771.514,1113.093 1770.144,1102.134 1758.233,1120.001 
			1742.199,1159.857 1713.551,1168.699 1675.924,1218.868 1659.898,1218.868 1650.84,1253.01 1630.633,1263.462 1630.633,1278.095 
			1548.412,1289.94 1498.244,1313.631 1503.901,1318.623 		"/>
		<polygon fill="#964238" points="1307.115,1578.684 1346.423,1556.961 1339.182,1541.445 1336.406,1541.445 1341.218,1551.756 
			1301.91,1573.478 1297.772,1586.926 1304.579,1586.926 		"/>
		<polygon fill="#964238" points="1502.62,1786.602 1607.097,1712.124 1599.556,1656.265 1594.852,1654.771 1601.891,1706.918 
			1497.415,1781.396 1439.23,1800 1460.716,1800 		"/>
		<polygon fill="#964238" points="2000.445,897.917 2010.202,907.36 2010.2,907.19 2000.455,897.759 		"/>
		<polygon fill="#964238" points="1987.178,769.745 1987.415,779.683 1997.55,770.031 2002.717,771.205 2002.961,767.239 
			1992.344,764.826 		"/>
		<polygon fill="#964238" points="2041.948,998.779 2053.53,987.679 2054.012,965.962 2057.344,942.337 2056.529,943.867 
			2054.116,923.115 2048.807,960.757 2048.325,982.474 2038.502,991.887 		"/>
		<polygon fill="#964238" points="1973.903,555.278 1978.391,544.466 1979.314,524.496 1974.951,535.007 		"/>
		<polygon fill="#964238" points="1892.719,1003.559 1892.719,914.068 1900.678,861.485 1900.678,758.899 1904.592,730.283 
			1904.592,687.013 1895.473,753.694 1895.473,856.28 1887.514,908.862 1887.514,996.966 		"/>
		<polygon fill="#964238" points="1916.636,826.15 1925.185,817.601 1933.164,676.83 1943.423,676.83 1947.539,553.871 
			1958.514,529.176 1958.514,452.348 1964.61,414.945 1963.339,385.599 1953.309,447.143 1953.309,523.971 1942.333,548.666 
			1938.217,671.625 1927.959,671.625 1919.98,812.396 1915.757,816.619 		"/>
	</g>
	<polygon class="feature-4" fill="#4D211C" points="546.185,1470.896 640.706,1562.869 690.747,1683.375 801.171,1727.386 650.843,1713.791 
		598.07,1606.851 474.596,1513.964 386.615,1334.919 	"/>
	<polygon class="feature-4" fill="#4D211C" points="158.41,1355.741 286.861,1465.783 335.033,1554.393 386.615,1638.33 439.486,1654.771 
		467.571,1698.406 427.74,1673.964 360.651,1673.964 305.992,1564.185 176.175,1470.896 51.824,1324.241 	"/>
	<polygon class="feature-4" fill="#4D211C" points="0,1318.623 87.353,1482.621 150.211,1554.393 215.803,1612.317 265.547,1713.791 215.803,1673.964 
		138.623,1571.322 73.688,1586.926 25.861,1475.668 0,1401.365 	"/>
	<polygon fill="#5C2822" points="336.52,779.304 393.299,818.554 452.297,1044.175 598.07,1203.822 593.893,1234.783 
		427.318,1076.319 370.518,844.009 	"/>
	<polygon fill="#5C2822" points="357.373,576.096 374.817,632.702 386.176,743.674 407.314,770.925 374.817,748.832 
		366.928,630.516 	"/>
	<polygon fill="#5C2822" points="2420.448,1268.588 2357.912,1343.56 2289.817,1520.642 2176.522,1586.926 2324.978,1530.394 
		2373.574,1352.183 	"/>
	<polygon fill="#5C2822" points="2500.563,1289.553 2474.83,1386.687 2418.637,1488.065 2500.563,1386.687 	"/>
	<polygon fill="#5C2822" points="2799.797,1180.109 2767.496,1301.657 2720.417,1355.909 2790.908,1318.623 	"/>
	<polygon class="feature-4" fill="#4D211C" points="455.333,1541.445 535.979,1632.517 566.44,1752.869 631.128,1786.094 532.866,1758.547 
		516.687,1638.33 	"/>
	<polygon class="feature-4" fill="#4D211C" points="780.079,1482.621 839.692,1531.152 884.479,1638.33 991.751,1682.28 874.331,1654.771 
		831.639,1536.281 	"/>
	<g>
		<g>
			<g>
				<path class="feature-3" fill="#892634" d="M1535.654,519.152c5.5-4.688,12.281-9.697,19.262-7.827c3.861,1.035,9.364,3.053,13.132,7.834
					c0,0,10.197-7.597,15.748-8.285c5.551-0.688,11.468,0.801,15.626,4.543c-3.771-2.069-8.461-1.218-12.506,0.243
					c-7.487,2.706-14.266,7.345-19.5,13.344c-2.885-4.91-6.178-10.17-11.53-12.116
					C1549.161,514.444,1541.867,515.601,1535.654,519.152"/>
			</g>
			<g>
				<path class="feature-3" fill="#892634" d="M1546.001,636.134c5.5-4.688,12.281-9.697,19.262-7.827c3.861,1.035,9.363,3.053,13.132,7.834
					c0,0,10.197-7.597,15.748-8.285c5.551-0.688,11.468,0.801,15.626,4.543c-3.771-2.069-8.461-1.218-12.506,0.244
					c-7.487,2.705-14.266,7.345-19.5,13.344c-2.885-4.91-6.178-10.17-11.53-12.116
					C1559.507,631.425,1552.214,632.583,1546.001,636.134"/>
			</g>
			<g>
				<path class="feature-3" fill="#892634" d="M1729.668,610.757c2.413-2.057,5.388-4.254,8.45-3.434c1.694,0.454,4.108,1.339,5.761,3.437
					c0,0,4.473-3.333,6.909-3.635c2.435-0.302,5.031,0.351,6.855,1.993c-1.654-0.907-3.712-0.534-5.486,0.107
					c-3.285,1.187-6.259,3.222-8.554,5.854c-1.266-2.154-2.71-4.461-5.058-5.315
					C1735.593,608.691,1732.393,609.199,1729.668,610.757"/>
			</g>
			<g>
				<path class="feature-3" fill="#892634" d="M1446.308,642.903c-2.535-18.655,16.481-20.439,20.25-15.658c0,0,12.396-11.817,25.069,12.516
					c-13.687-9.936-20.468-8.669-25.701-2.669C1463.041,632.181,1455.433,629.114,1446.308,642.903"/>
			</g>
			<g>
				<path class="feature-3" fill="#892634" d="M1645.568,581.66c-2.535-18.655,16.614-17.667,20.382-12.886c0,0,12.264-14.589,24.937,9.743
					c-13.687-9.936-20.468-8.669-25.701-2.669C1662.301,570.938,1654.693,567.871,1645.568,581.66"/>
			</g>
			<g>
				<path class="feature-3" fill="#892634" d="M1631.857,662.249c-0.311-11.753,11.51-9.844,13.526-6.621c0,0,8.601-8.227,14.822,7.736
					c-7.825-7.095-12.12-6.767-15.775-3.396C1642.97,656.726,1638.455,654.307,1631.857,662.249"/>
			</g>
			<g>
				<path class="feature-3" fill="#892634" d="M1388.828,587.789c3.616-4.539,8.194-9.528,13.984-9.125c3.202,0.223,7.849,0.97,11.553,4.161
					c0,0,6.873-7.552,11.143-8.947c4.271-1.394,9.163-1.128,13.015,1.184c-3.29-1.052-6.857,0.338-9.821,2.11
					c-5.487,3.281-10.12,7.978-13.324,13.511c-3.028-3.428-6.43-7.069-10.948-7.782
					C1398.753,582.006,1393.181,584.037,1388.828,587.789"/>
			</g>
			<g>
				<path class="feature-3" fill="#892634" d="M1761.385,547.427c2.645-2.904,5.959-6.068,9.85-5.536c2.152,0.294,5.257,1.006,7.616,3.326
					c0,0,4.978-4.793,7.924-5.543c2.946-0.751,6.238-0.352,8.735,1.381c-2.175-0.858-4.645-0.079-6.726,0.986
					c-3.852,1.971-7.19,4.935-9.601,8.528c-1.891-2.45-4.026-5.061-7.044-5.744C1768.346,543.965,1764.493,545.088,1761.385,547.427
					"/>
			</g>
		</g>
	</g>
</g>
</svg>
